<svg id="clouds" xmlns="http://www.w3.org/2000/svg" viewBox="0 0 2048.88 1152"><defs><style>.cls-1{fill:#fff;stroke:#fff;stroke-linecap:round;stroke-linejoin:round;stroke-width:0.25px;}</style></defs><path class="cls-1" d="M1189.62,217.68h260.5c-36.75-15.09-43.89-38.85-63.37-38.85s-24.93,12.94-36.58,14.19-17.82-9-27.68-7.68-15.59,7.86-22.45,10.37-10.3-4.31-19.89-3.39-10.68,7.26-17,9-7.46-3.32-18.26-3.32S1237.61,206,1189.62,217.68Z"/><path class="cls-1" d="M1320.06,398.54H1122.93c27.82-11.41,33.22-29.4,48-29.4s18.86,9.79,27.68,10.74,13.49-6.83,20.94-5.81,11.81,5.95,17,7.85,7.8-3.26,15.06-2.57,8.08,5.49,12.87,6.79,5.65-2.51,13.82-2.51S1283.75,389.74,1320.06,398.54Z"/><path class="cls-1" d="M852.86,283.11s-26-2.52-45.51-11.81S784,256.39,769.73,255.14s-23.09,13.2-38.06,10.1-36.68-27-68.37-24.09-50.55,30.21-57.87,32.48-12.09-1.56-21.5-.85-19.18,8.92-34.15,10.33Z"/></svg>