<svg xmlns="http://www.w3.org/2000/svg" viewBox="0 0 2048.88 1152"><defs><style>.cls-1{fill:#141414;}.cls-2{fill:#f9f9f9;}.cls-3{fill:#f7f7f7;}.cls-4{fill:#e0e0e0;}.cls-5{fill:#828282;}.cls-6{font-size:163px;font-family:Rakkas-Regular, Rakkas;letter-spacing:-0.06em;}.cls-23,.cls-6{fill:#fff;}.cls-7{letter-spacing:-0.08em;}.cls-8{letter-spacing:-0.06em;}.cls-9{letter-spacing:-0.14em;}.cls-10{fill:#afafaf;}.cls-11{fill:#878787;}.cls-12{fill:#5b5b5b;}.cls-13{fill:#4c4c4c;}.cls-14{fill:#999;}.cls-15{fill:#333;}.cls-16{fill:#1d1d1b;}.cls-17,.cls-19{fill:#232323;}.cls-17{stroke:#232323;}.cls-17,.cls-18,.cls-20,.cls-21,.cls-22,.cls-23{stroke-linecap:round;stroke-linejoin:round;}.cls-17,.cls-20{stroke-width:2px;}.cls-18{fill:none;stroke:#878787;}.cls-20,.cls-22{fill:#2b292b;stroke:#2b292b;}.cls-21{fill:#cec8c8;stroke:#cec8c8;}.cls-23{stroke:#fff;stroke-width:0.25px;}</style></defs><g id="Lager_1_kopia" data-name="Lager 1 kopia"><rect class="cls-1" width="2048.88" height="1152"/></g><g id="Stars"><path class="cls-2" d="M939,76.44c.81,0,1.12-1,.14-1-.82,0-1.13,1-.14,1Z"/><path class="cls-2" d="M1190.38,54.48c.33,0,1.65-.62.94-.62-.33,0-1.65.62-.94.62Z"/><path class="cls-2" d="M1153.29,113.72c.65,0,1.49-1,.52-1-.65,0-1.5,1-.52,1Z"/><path class="cls-2" d="M1442.56,107.54c.83,0,1.12-1.05.13-1.05-.82,0-1.11,1.05-.13,1.05Z"/><path class="cls-2" d="M1467.2,343.63c.51,0,1.56-.76.59-.76-.5,0-1.56.76-.59.76Z"/><path class="cls-2" d="M1286.94,427.63c.6,0,1.52-.91.54-.91-.6,0-1.52.91-.54.91Z"/><path class="cls-2" d="M1159.7,402.85c.84,0,1.11-1.08.13-1.08s-1.11,1.08-.13,1.08Z"/><path class="cls-2" d="M1429.93,284.66c.62,0,1.51-.94.53-.94-.62,0-1.51.94-.53.94Z"/><path class="cls-2" d="M1414.6,474.36c.84,0,1.09-1.11.11-1.11s-1.1,1.11-.11,1.11Z"/><path class="cls-2" d="M1579.33,231.87c.82,0,1.12-1,.13-1-.82,0-1.11,1-.13,1Z"/><path class="cls-2" d="M1656.63,63.77c.28,0,1.63-.55.95-.55-.28,0-1.62.55-.95.55Z"/><path class="cls-2" d="M1852.64,63.86c.5,0,1.56-.74.59-.74-.49,0-1.56.74-.59.74Z"/><path class="cls-2" d="M1945.91,147.86c.58,0,1.53-.88.55-.88-.58,0-1.52.88-.55.88Z"/><path class="cls-2" d="M1967.67,262.87c.59,0,1.53-.88.55-.88-.59,0-1.52.88-.55.88Z"/><path class="cls-2" d="M525.18,157c.29,0,1.63-.57,1-.57-.3,0-1.64.57-1,.57Z"/><path class="cls-2" d="M739.66,122.83c.28,0,1.62-.55,1-.55-.29,0-1.63.55-1,.55Z"/><path class="cls-2" d="M665.25,365.43c.56,0,1.54-.84.56-.84-.56,0-1.53.84-.56.84Z"/><path class="cls-2" d="M767.82,452.44c.54,0,1.55-.8.57-.8-.53,0-1.54.8-.57.8Z"/><path class="cls-2" d="M870.42,402.78c.61,0,1.51-.94.53-.94-.62,0-1.51.94-.53.94Z"/><path class="cls-2" d="M842.64,548.9c.8,0,1.13-1,.14-1-.8,0-1.13,1-.14,1Z"/><path class="cls-2" d="M537.8,303.25c.55,0,1.54-.82.57-.82-.55,0-1.54.82-.57.82Z"/><path class="cls-2" d="M867.51,144.83c.82,0,1.12-1,.13-1-.81,0-1.12,1-.13,1Z"/><path class="cls-2" d="M817.37,45.13c.29,0,1.63-.57.94-.57-.29,0-1.63.57-.94.57Z"/><path class="cls-2" d="M1078.65,82.5c.48,0,1.56-.71.59-.71-.47,0-1.56.71-.59.71Z"/><path class="cls-2" d="M1078.67,17.3c.57,0,1.53-.86.55-.86-.56,0-1.53.86-.55.86Z"/><path class="cls-2" d="M475.61,26.52c.44,0,1.57-.65.61-.65-.43,0-1.57.65-.61.65Z"/><path class="cls-2" d="M441.66,290.94c.83,0,1.11-1.06.13-1.06s-1.11,1.06-.13,1.06Z"/><path class="cls-2" d="M593.77,356.16c.64,0,1.51-1,.53-1-.64,0-1.5,1-.53,1Z"/><path class="cls-2" d="M602.89,492.75c.32,0,1.65-.6.94-.6-.31,0-1.64.6-.94.6Z"/><path class="cls-2" d="M615.74,374.89c.84,0,1.1-1.11.11-1.11s-1.09,1.11-.11,1.11Z"/><path class="cls-2" d="M354.4,119.81c.48,0,1.55-.73.59-.73-.49,0-1.56.73-.59.73Z"/><path class="cls-2" d="M192.75,154c.46,0,1.57-.68.61-.68-.46,0-1.57.68-.61.68Z"/><path class="cls-2" d="M227.18,238.07c.8,0,1.12-1,.14-1-.81,0-1.13,1-.14,1Z"/><path class="cls-2" d="M276.91,405.94c.83,0,1.12-1,.14-1-.82,0-1.12,1-.14,1Z"/><path class="cls-2" d="M404.16,405.89c.63,0,1.51-.95.53-.95-.63,0-1.51.95-.53.95Z"/><path class="cls-2" d="M276.51,272.06c.33,0,1.65-.61.94-.61-.32,0-1.65.61-.94.61Z"/><path class="cls-2" d="M547.13,110.52c.53,0,1.54-.8.57-.8-.53,0-1.55.8-.57.8Z"/><path class="cls-2" d="M687,150.9c.48,0,1.55-.74.58-.74-.48,0-1.55.74-.58.74Z"/><path class="cls-2" d="M789.57,178.88c.5,0,1.56-.75.59-.75-.5,0-1.56.75-.59.75Z"/><path class="cls-2" d="M1172.07,251.13c.29,0,1.63-.55,1-.55-.29,0-1.63.55-1,.55Z"/><path class="cls-2" d="M1139,188.41c.84,0,1.1-1.11.12-1.11s-1.1,1.11-.12,1.11Z"/><path class="cls-2" d="M1262.09,156.17c.64,0,1.5-1,.52-1-.64,0-1.5,1-.52,1Z"/><path class="cls-2" d="M1190.75,556.53a1.55,1.55,0,0,0,1-.28c.13-.16.26-.35-.1-.35s-.82,0-1,.27-.27.36.09.36Z"/><path class="cls-2" d="M1203.66,486.57c.5,0,1.55-.76.58-.76-.51,0-1.55.76-.58.76Z"/><path class="cls-2" d="M1265.2,492.94c.51,0,1.55-.77.57-.77-.5,0-1.55.77-.57.77Z"/><path class="cls-2" d="M1265.22,539.7c.61,0,1.51-.93.53-.93-.61,0-1.51.93-.53.93Z"/><path class="cls-2" d="M1381.77,334.17c.51,0,1.29-.15,1.52-.68s-.18-.84-.67-.84-1.29.14-1.52.67.18.85.67.85Z"/><path class="cls-2" d="M1468.72,247c.41,0,1.36-.17,1.54-.6s-.15-.57-.59-.57-1.37.17-1.54.61.15.56.59.56Z"/><path class="cls-2" d="M1496,123.81a2.71,2.71,0,0,0,1.64-.44c.28-.25.39-.51-.14-.51a2.71,2.71,0,0,0-1.64.44c-.28.24-.39.51.14.51Z"/><path class="cls-2" d="M1475.13,457.2c.46,0,1.32-.14,1.52-.66s-.16-.78-.66-.78-1.32.15-1.52.66.16.78.66.78Z"/><path class="cls-2" d="M1127.1,92.15c.44,0,1.33-.16,1.54-.63s-.17-.66-.63-.66-1.33.15-1.53.63.17.66.62.66Z"/><path class="cls-2" d="M1190.73,104.76c.71,0,2.51-1.05,1-1.05-.71,0-2.51,1.05-1,1.05Z"/><path class="cls-2" d="M1012.88,111.49c1.35,0,1.75-1.78.18-1.78-1.35,0-1.75,1.78-.18,1.78Z"/><path class="cls-2" d="M923.1,49.55a2.67,2.67,0,0,0,1.64-.44c.28-.25.39-.53-.14-.53A2.61,2.61,0,0,0,923,49c-.28.25-.39.53.14.53Z"/><path class="cls-2" d="M808.81,109.14c.45,0,1.33-.15,1.53-.63s-.16-.69-.63-.69-1.33.15-1.53.63.17.69.63.69Z"/><path class="cls-2" d="M641.16,448.6c.41,0,1.36-.16,1.54-.61s-.15-.6-.61-.6-1.35.16-1.53.61.15.6.6.6Z"/><path class="cls-2" d="M660.3,665.2c.51,0,1.29-.14,1.52-.68s-.18-.85-.67-.85-1.29.14-1.52.67.18.86.67.86Z"/><path class="cls-2" d="M486.26,552.57c.4,0,1.35-.17,1.53-.61s-.15-.59-.6-.59-1.36.17-1.54.61.16.59.61.59Z"/><path class="cls-2" d="M263.48,584.49c.45,0,1.32-.15,1.52-.65s-.16-.73-.64-.73-1.33.14-1.53.64.16.74.65.74Z"/><path class="cls-2" d="M78.87,300.18c.47,0,1.32-.15,1.52-.66s-.16-.79-.65-.79-1.32.15-1.52.66.16.79.65.79Z"/><path class="cls-2" d="M98.29,69c1.3,0,1.8-1.62.23-1.62-1.3,0-1.81,1.62-.23,1.62Z"/><path class="cls-2" d="M267.73,56.15c.47,0,1.32-.14,1.52-.66s-.16-.79-.66-.79-1.32.15-1.52.67.16.78.66.78Z"/><path class="cls-2" d="M333.46,200.27c.73,0,2.51-1.09,1-1.09-.73,0-2.5,1.09-1,1.09Z"/><path class="cls-2" d="M688.67,29.45c.46,0,1.33-.15,1.53-.65s-.16-.73-.64-.73-1.33.15-1.53.65.16.73.64.73Z"/><path class="cls-2" d="M628.26,42.42c1.34,0,1.77-1.74.2-1.74-1.34,0-1.77,1.74-.2,1.74Z"/><path class="cls-2" d="M1336.17,29.59c.47,0,1.32-.15,1.52-.66s-.16-.79-.65-.79-1.33.15-1.53.66.16.79.66.79Z"/><path class="cls-2" d="M1332.82,102c.72,0,2.51-1.07,1-1.07-.72,0-2.5,1.07-1,1.07Z"/><path class="cls-2" d="M1535.86,36.13c.44,0,1.33-.16,1.53-.64s-.17-.68-.63-.68-1.33.15-1.53.63.16.69.63.69Z"/><path class="cls-2" d="M1590.3,121.86c.4,0,1.36-.16,1.54-.59s-.15-.55-.59-.55-1.37.17-1.54.6.15.54.59.54Z"/><path class="cls-2" d="M846.42,621.6c1.32,0,1.78-1.69.21-1.69-1.32,0-1.78,1.69-.21,1.69Z"/><path class="cls-2" d="M917.47,465.43a2.81,2.81,0,0,0,1.64-.43c.28-.25.4-.47-.12-.47a2.83,2.83,0,0,0-1.64.43c-.28.25-.4.47.12.47Z"/><path class="cls-2" d="M521.87,742.38a2.73,2.73,0,0,0,1.63-.44c.29-.25.39-.5-.13-.5a2.78,2.78,0,0,0-1.64.44c-.28.24-.39.5.14.5Z"/><path class="cls-2" d="M326.53,668.19a2.78,2.78,0,0,0,1.64-.44c.28-.24.39-.48-.13-.48a2.78,2.78,0,0,0-1.64.44c-.28.24-.39.48.13.48Z"/><path class="cls-2" d="M368.84,566.92c.75,0,2.5-1.13,1-1.13-.74,0-2.5,1.13-1,1.13Z"/><path class="cls-2" d="M114.19,525c.43,0,1.33-.16,1.53-.62s-.17-.66-.62-.66-1.33.16-1.53.63.16.65.62.65Z"/><path class="cls-2" d="M119.1,440.79c.72,0,2.51-1.07,1-1.07-.72,0-2.51,1.07-1,1.07Z"/><path class="cls-2" d="M201.08,708.13c1.31,0,1.78-1.67.21-1.67-1.31,0-1.79,1.67-.21,1.67Z"/><path class="cls-2" d="M1723.81,13c.71,0,2.51-1.06,1-1.06-.71,0-2.51,1.06-1,1.06Z"/><path class="cls-2" d="M1785.35,99.5a2.76,2.76,0,0,0,1.64-.44c.29-.24.39-.49-.13-.49a2.78,2.78,0,0,0-1.64.44c-.28.25-.39.49.13.49Z"/><path class="cls-2" d="M2015.62,30.52c.47,0,1.32-.15,1.53-.66s-.17-.77-.66-.77-1.32.15-1.52.66.16.77.65.77Z"/><path class="cls-2" d="M1954.14,72.7c1.34,0,1.78-1.72.2-1.72-1.33,0-1.77,1.72-.2,1.72Z"/><path class="cls-2" d="M1976.39,137c1.33,0,1.78-1.7.21-1.7-1.33,0-1.78,1.7-.21,1.7Z"/><path class="cls-2" d="M2037.56,213.24a2.78,2.78,0,0,0,1.64-.44c.28-.24.39-.48-.13-.48a2.83,2.83,0,0,0-1.64.43c-.29.25-.39.49.13.49Z"/><path class="cls-2" d="M2010.63,334.46c.71,0,2.51-1.06,1-1.06-.71,0-2.51,1.06-1,1.06Z"/><path class="cls-2" d="M444.46,391.57c.45,0,1.32-.15,1.52-.65s-.16-.71-.63-.71-1.33.15-1.53.64.16.72.64.72Z"/><path class="cls-2" d="M211.9,344.13c.46,0,1.33-.15,1.53-.66s-.16-.74-.65-.74-1.32.14-1.52.65.16.75.64.75Z"/><path class="cls-2" d="M325.81,453.3c.47,0,1.32-.15,1.53-.66s-.17-.76-.65-.76-1.33.14-1.53.65.16.77.65.77Z"/><path class="cls-2" d="M325.8,339.34c.45,0,1.33-.15,1.53-.63s-.17-.7-.63-.7-1.33.16-1.53.64.16.69.63.69Z"/><path class="cls-2" d="M421.07,178.17c1.33,0,1.78-1.71.2-1.71-1.33,0-1.77,1.71-.2,1.71Z"/><path class="cls-2" d="M539.41,220.81c.51,0,1.28-.14,1.51-.69s-.18-.87-.68-.87-1.28.14-1.52.68.18.88.69.88Z"/><path class="cls-2" d="M463.13,25.88a2.85,2.85,0,0,0,1.64-.44c.28-.24.4-.45-.13-.45a2.82,2.82,0,0,0-1.63.44c-.28.24-.4.45.12.45Z"/><path class="cls-2" d="M1107.6,131.89a2.7,2.7,0,0,0,1.64-.43c.27-.25.38-.55-.15-.55a2.64,2.64,0,0,0-1.64.44c-.27.25-.39.54.15.54Z"/><path class="cls-2" d="M1431,68.19c.54,0,1.63-.21,1.92-.75s-.25-.69-.74-.69-1.64.21-1.93.75.26.69.75.69Z"/><path class="cls-2" d="M1348.58,306.58c1.71,0,2.18-2.27.22-2.27-1.71,0-2.18,2.27-.22,2.27Z"/><path class="cls-2" d="M681,193.46c.54,0,1.64-.21,1.92-.74s-.25-.68-.73-.68-1.64.21-1.93.74.26.68.74.68Z"/><path class="cls-2" d="M688.44,79.44c.52,0,1.64-.21,1.93-.72s-.27-.6-.72-.6-1.64.22-1.93.73.27.59.72.59Z"/><path class="cls-2" d="M712.87,535.21a3.68,3.68,0,0,0,2-.55c.38-.29.47-.57-.15-.57a3.68,3.68,0,0,0-2,.55c-.38.3-.47.57.15.57Z"/><path class="cls-2" d="M747.9,612.11c.52,0,1.64-.22,1.93-.72s-.27-.59-.71-.59-1.65.22-1.94.72.27.59.72.59Z"/><path class="cls-2" d="M1682.41,260.67c1.63,0,2.24-2.05.27-2.05-1.63,0-2.24,2.05-.27,2.05Z"/><path class="cls-2" d="M1694,185.93a3.34,3.34,0,0,0,2-.55c.36-.31.47-.68-.18-.68a3.34,3.34,0,0,0-2,.55c-.36.31-.47.68.18.68Z"/><path class="cls-2" d="M1905,191.08c.58,0,1.62-.19,1.91-.78s-.24-.84-.78-.84-1.62.2-1.91.79.24.83.78.83Z"/><path class="cls-2" d="M1399,552.35c.52,0,1.64-.22,1.93-.73s-.26-.59-.71-.59-1.65.22-1.94.73.27.59.72.59Z"/><path class="cls-2" d="M1378.87,483.24c1.68,0,2.2-2.2.24-2.2-1.68,0-2.2,2.2-.24,2.2Z"/><path class="cls-2" d="M1206.71,352.49c.56,0,1.63-.2,1.92-.76s-.25-.75-.75-.75-1.64.21-1.92.77.24.74.75.74Z"/><path class="cls-2" d="M542.28,417.56c.23,0,1.3-.44.76-.44-.22,0-1.3.44-.76.44Z"/><path class="cls-2" d="M553.1,561.57c.45,0,1.22-.68.44-.68-.45,0-1.22.68-.44.68Z"/><path class="cls-2" d="M531.77,481.6c.42,0,1.24-.62.46-.62-.41,0-1.24.62-.46.62Z"/><path class="cls-2" d="M446.35,454.86c.23,0,1.31-.43.77-.43-.23,0-1.3.43-.77.43Z"/><path class="cls-2" d="M553.09,566.87c.41,0,1.24-.62.46-.62-.41,0-1.24.62-.46.62Z"/><path class="cls-2" d="M574.39,662.74c.35,0,1.26-.51.49-.51-.35,0-1.26.51-.49.51Z"/><path class="cls-2" d="M625,774.7c.4,0,1.24-.6.47-.6-.4,0-1.25.6-.47.6Z"/><path class="cls-2" d="M452,399.51c.64,0,.9-.81.11-.81-.64,0-.9.81-.11.81Z"/><path class="cls-2" d="M455.73,380.21c.5,0,1.2-.76.42-.76-.5,0-1.2.76-.42.76Z"/><path class="cls-2" d="M870.89,125.42c.66,0,.89-.83.11-.83s-.9.83-.11.83Z"/><path class="cls-2" d="M886.89,145.55c.43,0,1.24-.64.46-.64-.42,0-1.23.64-.46.64Z"/><path class="cls-2" d="M947.41,64.55c.23,0,1.31-.44.77-.44-.23,0-1.31.44-.77.44Z"/><path class="cls-2" d="M955.84,76.9c.67,0,.88-.87.09-.87s-.88.87-.09.87Z"/><path class="cls-2" d="M1129.57,68.66c.38,0,1.25-.57.48-.57-.38,0-1.25.57-.48.57Z"/><path class="cls-2" d="M1139.55,78.73c.25,0,1.31-.48.75-.48-.25,0-1.32.48-.75.48Z"/><path class="cls-2" d="M462.19,44.42c.41,0,1.24-.62.46-.62-.41,0-1.24.62-.46.62Z"/><path class="cls-2" d="M540.92,42.34c.27,0,1.32-.51.74-.51-.26,0-1.31.51-.74.51Z"/><path class="cls-2" d="M450.08,109.22c.52,0,1.19-.79.41-.79-.52,0-1.19.79-.41.79Z"/><path class="cls-2" d="M634.27,60.71c.66,0,.89-.84.11-.84s-.9.84-.11.84Z"/><path class="cls-2" d="M646.4,46.54c.66,0,.9-.82.11-.82s-.9.82-.11.82Z"/><path class="cls-2" d="M632.24,14.18c.65,0,.91-.81.12-.81s-.91.81-.12.81Z"/><path class="cls-2" d="M1582.2,113.92c.45,0,1.22-.69.44-.69-.45,0-1.22.69-.44.69Z"/><path class="cls-2" d="M1580.24,135.42c.23,0,1.3-.44.76-.44-.23,0-1.3.44-.76.44Z"/><path class="cls-2" d="M1604,137.45c.68,0,.87-.9.09-.9s-.87.9-.09.9Z"/><path class="cls-2" d="M1605.79,114c.66,0,.9-.84.11-.84s-.89.84-.11.84Z"/><path class="cls-2" d="M1783.87,83.18c.25,0,1.31-.48.75-.48-.24,0-1.31.48-.75.48Z"/><path class="cls-2" d="M1762.58,99.61c.68,0,.87-.9.09-.9s-.88.9-.09.9Z"/><path class="cls-2" d="M1816.45,101.23c.36,0,1.25-.54.48-.54-.37,0-1.26.54-.48.54Z"/><path class="cls-2" d="M1975.06,123c.52,0,1.19-.79.41-.79-.52,0-1.19.79-.41.79Z"/><path class="cls-2" d="M1994.87,121.14c.47,0,1.22-.71.44-.71-.47,0-1.22.71-.44.71Z"/><path class="cls-2" d="M1994.87,159c.46,0,1.22-.71.44-.71-.47,0-1.22.71-.44.71Z"/><path class="cls-2" d="M1456.23,236.53c.65,0,.89-.84.1-.84s-.89.84-.1.84Z"/><path class="cls-2" d="M1477.66,232.79c.38,0,1.25-.57.48-.57-.38,0-1.25.57-.48.57Z"/><path class="cls-2" d="M1490.28,267c.38,0,1.25-.57.47-.57-.37,0-1.24.57-.47.57Z"/><path class="cls-2" d="M182,142.8c.51,0,1.2-.78.42-.78-.52,0-1.2.78-.42.78Z"/><path class="cls-2" d="M180.22,162.61c.5,0,1.21-.76.43-.76-.5,0-1.21.76-.43.76Z"/><path class="cls-2" d="M194.8,184.27c.66,0,.89-.84.1-.84s-.89.84-.1.84Z"/><path class="cls-2" d="M209.06,162.62c.51,0,1.2-.78.42-.78-.52,0-1.2.78-.42.78Z"/><path class="cls-2" d="M428.41,196.1c.43,0,1.24-.65.46-.65-.43,0-1.23.65-.46.65Z"/><path class="cls-2" d="M431.35,202c.4,0,1.24-.59.47-.59-.4,0-1.25.59-.47.59Z"/><path class="cls-2" d="M451.79,181.32c.26,0,1.31-.49.74-.49-.25,0-1.31.49-.74.49Z"/><path class="cls-2" d="M475.6,175.83c1,0,1.34-1.27.16-1.27-1,0-1.34,1.27-.16,1.27Z"/><path class="cls-2" d="M1023.55,94.59c.35,0,1-.11,1.14-.5s-.12-.62-.5-.62-1,.1-1.14.5.11.62.5.62Z"/><path class="cls-2" d="M1030.47,113.64c.36,0,1-.1,1.14-.5s-.11-.63-.5-.63-1,.1-1.14.5.11.63.5.63Z"/><path class="cls-2" d="M1483.88,77.08c.34,0,1,0,1.23-.33s.33-.4-.1-.4-1,.05-1.23.33-.33.4.1.4Z"/><path class="cls-2" d="M1489.32,63.41c.35,0,1-.11,1.14-.5s-.12-.6-.5-.6-1,.11-1.14.5.11.6.5.6Z"/><path class="cls-2" d="M1496.22,94.48c.6,0,1.86-.9.69-.9-.6,0-1.86.9-.69.9Z"/><path class="cls-3" d="M524.35,343.81c.54,0,1.64-.21,1.93-.74s-.26-.63-.73-.63-1.64.21-1.93.73.26.64.73.64Z"/><path class="cls-3" d="M570.07,497.12c.59,0,1.62-.19,1.91-.8s-.24-.9-.8-.9-1.62.19-1.91.8.24.9.8.9Z"/><path class="cls-3" d="M599.63,301c.6,0,1.62-.19,1.91-.81s-.24-.92-.81-.92-1.61.19-1.9.81.23.92.8.92Z"/><path class="cls-3" d="M610,123.4a3.52,3.52,0,0,0,2-.55c.37-.31.47-.63-.17-.63a3.45,3.45,0,0,0-2,.55c-.37.3-.47.63.17.63Z"/><path class="cls-3" d="M621.12,142.45c.59,0,1.62-.19,1.91-.79s-.24-.89-.8-.89-1.62.2-1.91.8.24.88.8.88Z"/><path class="cls-3" d="M631.47,158.29a3.68,3.68,0,0,0,2-.55c.39-.29.48-.56-.15-.56a3.68,3.68,0,0,0-2,.55c-.38.29-.47.56.15.56Z"/><path class="cls-3" d="M1462.53,172.29c1.7,0,2.19-2.24.23-2.24-1.7,0-2.19,2.24-.23,2.24Z"/><path class="cls-3" d="M1427.15,161.23c.58,0,1.62-.2,1.91-.79s-.24-.82-.77-.82-1.63.19-1.92.78.24.83.78.83Z"/><path class="cls-3" d="M1169.19,155.74c.53,0,1.63-.21,1.92-.74s-.26-.64-.73-.64-1.64.21-1.92.73.25.65.73.65Z"/><path class="cls-3" d="M586.17,556.15c.56,0,1.63-.2,1.92-.77s-.25-.77-.76-.77-1.63.21-1.92.77.24.77.76.77Z"/><path class="cls-3" d="M717.83,481c.58,0,1.63-.19,1.92-.78s-.25-.82-.78-.82-1.63.19-1.92.78.25.82.78.82Z"/><path class="cls-3" d="M795.39,405.54a3.35,3.35,0,0,0,2.05-.54c.35-.32.47-.7-.19-.7a3.33,3.33,0,0,0-2,.54c-.36.32-.47.7.19.7Z"/><path class="cls-3" d="M1594.18,24.51c1.7,0,2.2-2.23.23-2.23-1.69,0-2.19,2.23-.23,2.23Z"/><path class="cls-3" d="M1655.51,5.34c.56,0,1.63-.21,1.92-.76s-.25-.74-.75-.74-1.63.2-1.92.76.25.74.75.74Z"/><path class="cls-3" d="M1875.47,2.47a3.68,3.68,0,0,0,2-.55c.37-.3.47-.59-.16-.59a3.68,3.68,0,0,0-2,.55c-.38.3-.47.59.16.59Z"/><path class="cls-3" d="M1916.1,32.1c.52,0,1.65-.22,1.94-.72s-.27-.57-.71-.57-1.65.22-1.94.72.27.57.71.57Z"/><path class="cls-3" d="M1943,255.22c.56,0,1.63-.21,1.92-.77s-.25-.75-.76-.75-1.63.21-1.92.77.25.75.76.75Z"/><path class="cls-3" d="M1961.81,327.76c.56,0,1.63-.21,1.92-.77s-.25-.74-.76-.74-1.63.2-1.92.76.25.75.76.75Z"/><path class="cls-3" d="M1980.59,386.76c.52,0,1.64-.21,1.93-.72s-.27-.58-.71-.58-1.65.22-1.93.72.26.58.71.58Z"/><path class="cls-3" d="M2015.6,414c.66,0,1.6-.18,1.9-.86s-.24-1.1-.85-1.1-1.59.18-1.9.86.24,1.1.85,1.1Z"/><path class="cls-3" d="M2002.09,268.56c.52,0,1.64-.22,1.93-.73s-.27-.6-.72-.6-1.64.22-1.93.73.26.6.72.6Z"/><path class="cls-3" d="M1921.56,301.08c.64,0,1.59-.18,1.9-.84s-.24-1.05-.84-1.05-1.59.18-1.9.84.24,1.05.84,1.05Z"/><path class="cls-3" d="M1910.39,236.2a3.76,3.76,0,0,0,2-.55c.39-.29.47-.55-.15-.55a3.76,3.76,0,0,0-2,.55c-.38.29-.47.55.15.55Z"/><path class="cls-3" d="M1973,204.51c1.68,0,2.2-2.2.24-2.2-1.68,0-2.21,2.2-.24,2.2Z"/><path class="cls-3" d="M1886.59,120.92c.58,0,1.63-.19,1.92-.78s-.25-.82-.78-.82-1.63.19-1.92.78.25.82.78.82Z"/><path class="cls-3" d="M1486.26,327.83c.59,0,1.63-.19,1.92-.79s-.24-.87-.79-.87-1.62.2-1.91.8.24.86.78.86Z"/><path class="cls-3" d="M1472.46,410.91a3.45,3.45,0,0,0,2-.55c.36-.31.47-.68-.18-.68a3.34,3.34,0,0,0-2,.55c-.36.31-.47.68.18.68Z"/><path class="cls-3" d="M1518.49,354.63c.56,0,1.63-.21,1.92-.77s-.25-.74-.76-.74-1.63.2-1.92.76.25.75.76.75Z"/><path class="cls-3" d="M1335.84,357.54c.66,0,1.6-.18,1.9-.86s-.24-1.1-.85-1.1-1.59.17-1.9.85.24,1.11.85,1.11Z"/><path class="cls-3" d="M1537.73,204.42c1.62,0,2.26-2,.29-2-1.62,0-2.26,2-.29,2Z"/><path class="cls-3" d="M1540.45,261c1.71,0,2.18-2.27.22-2.27-1.71,0-2.18,2.27-.22,2.27Z"/><path class="cls-3" d="M1545.4,231.2c.62,0,1.61-.18,1.9-.83s-.23-1-.83-1-1.61.18-1.9.84.23,1,.83,1Z"/><path class="cls-3" d="M92.25,392.55c1.65,0,2.22-2.13.25-2.13-1.65,0-2.22,2.13-.25,2.13Z"/><path class="cls-3" d="M81.5,419.43c1.67,0,2.22-2.15.25-2.15-1.66,0-2.21,2.15-.25,2.15Z"/><path class="cls-3" d="M67.65,376.24c.6,0,1.61-.19,1.9-.81s-.23-.94-.81-.94-1.61.19-1.9.81.23.94.81.94Z"/><path class="cls-3" d="M145.56,252.63c.6,0,1.62-.19,1.91-.8s-.24-.92-.8-.92-1.62.19-1.91.81.23.91.8.91Z"/><path class="cls-3" d="M155.91,265.75a3.78,3.78,0,0,0,2.05-.55c.38-.29.47-.54-.15-.54a3.78,3.78,0,0,0-2.05.55c-.39.29-.47.54.15.54Z"/><path class="cls-3" d="M167.08,247.37c.65,0,1.59-.18,1.9-.85s-.24-1.09-.85-1.09-1.59.18-1.9.85.24,1.09.85,1.09Z"/><path class="cls-3" d="M75.65,163.77c.53,0,1.64-.22,1.93-.72s-.26-.6-.72-.6-1.64.21-1.93.72.27.6.72.6Z"/><path class="cls-3" d="M86.43,190.78c.58,0,1.63-.2,1.92-.78s-.24-.83-.78-.83-1.62.2-1.91.79.24.82.77.82Z"/><path class="cls-3" d="M97.19,169.31c.59,0,1.62-.19,1.91-.79s-.24-.87-.79-.87-1.62.2-1.91.8.24.86.79.86Z"/><path class="cls-3" d="M164.8,43.28c1.66,0,2.21-2.15.24-2.15-1.66,0-2.21,2.15-.24,2.15Z"/><path class="cls-3" d="M193.91,61.81c.57,0,1.62-.2,1.91-.78s-.24-.82-.78-.82-1.62.2-1.91.78.24.82.78.82Z"/><path class="cls-3" d="M250.32,120.89c.57,0,1.63-.2,1.92-.77s-.25-.77-.77-.77-1.62.2-1.91.77.24.77.76.77Z"/><path class="cls-3" d="M62.27,569.68c.6,0,1.62-.19,1.91-.81s-.24-.92-.81-.92-1.61.19-1.9.81.23.92.8.92Z"/><path class="cls-3" d="M62.25,615.28c.57,0,1.63-.2,1.92-.78s-.25-.8-.78-.8-1.62.2-1.91.78.24.8.77.8Z"/><path class="cls-3" d="M78,655.33a3.84,3.84,0,0,0,2.05-.54c.39-.29.47-.54-.14-.54a3.76,3.76,0,0,0-2.05.55c-.39.29-.48.53.14.53Z"/><path class="cls-3" d="M153.63,604.65c.62,0,1.61-.19,1.9-.83s-.23-1-.82-1-1.61.18-1.9.83.23,1,.82,1Z"/><path class="cls-3" d="M145.16,569.37a3.68,3.68,0,0,0,2.05-.55c.39-.29.48-.56-.15-.56a3.68,3.68,0,0,0-2.05.55c-.38.29-.47.56.15.56Z"/><path class="cls-4" d="M833.53,430.87c.4,0,1.17-.13,1.34-.57s-.14-.66-.57-.66-1.17.13-1.33.57.13.66.56.66Z"/><path class="cls-4" d="M722,589.19c.18,0,1-.33.57-.33-.18,0-1,.33-.57.33Z"/><path class="cls-4" d="M759.75,571.92c.2,0,1-.38.56-.38-.2,0-1,.38-.56.38Z"/><path class="cls-4" d="M805.34,601.77c.17,0,1-.33.57-.33-.18,0-1,.33-.57.33Z"/><path class="cls-4" d="M788.17,649c.37,0,.9-.56.32-.56-.37,0-.91.56-.32.56Z"/><path class="cls-4" d="M873,474.5c.31,0,.93-.46.35-.46-.3,0-.93.46-.35.46Z"/><path class="cls-4" d="M871.47,523.24c.31,0,.93-.47.35-.47-.31,0-.93.47-.35.47Z"/><path class="cls-4" d="M909.21,440c.34,0,.91-.53.33-.53-.35,0-.92.53-.33.53Z"/><path class="cls-4" d="M1159,367.56c.19,0,1-.37.56-.37-.2,0-1,.37-.56.37Z"/><path class="cls-4" d="M1149.73,340.94c.38,0,.9-.58.31-.58-.38,0-.9.58-.31.58Z"/><path class="cls-4" d="M1266,257.57c.32,0,.93-.47.35-.47-.32,0-.93.47-.35.47Z"/><path class="cls-4" d="M1280.32,232.5c.5,0,.67-.63.08-.63s-.67.63-.08.63Z"/><path class="cls-4" d="M1289.62,257.56c.3,0,.93-.45.35-.45-.3,0-.93.45-.35.45Z"/><path class="cls-4" d="M997.37,37.59c.51,0,.66-.67.07-.67s-.66.67-.07.67Z"/><path class="cls-4" d="M1000.26,18.57c.19,0,1-.35.57-.35-.18,0-1,.35-.57.35Z"/><path class="cls-4" d="M1044.4,45.38c.35,0,.91-.53.33-.53-.36,0-.92.53-.33.53Z"/><path class="cls-4" d="M1207.88,15.49c.31,0,.93-.48.34-.48-.31,0-.93.48-.34.48Z"/><path class="cls-4" d="M1113.69,39.13c.48,0,.68-.6.08-.6s-.68.6-.08.6Z"/><path class="cls-4" d="M382.6,440c.39,0,.9-.59.31-.59-.39,0-.9.59-.31.59Z"/><path class="cls-4" d="M407.73,476.07c.31,0,.93-.46.35-.46-.31,0-.93.46-.35.46Z"/><path class="cls-4" d="M425.17,526.49c.51,0,.65-.69.06-.69s-.65.69-.06.69Z"/><path class="cls-4" d="M445.47,583c.33,0,.92-.5.33-.5-.33,0-.92.5-.33.5Z"/><path class="cls-4" d="M475.22,645.78c.17,0,1-.33.57-.33-.18,0-1,.33-.57.33Z"/><path class="cls-4" d="M436.17,683.67c.5,0,.66-.65.07-.65s-.66.65-.07.65Z"/><path class="cls-4" d="M354.18,730.68c.17,0,1-.35.56-.35-.18,0-1,.35-.56.35Z"/><path class="cls-4" d="M400,732.39c.49,0,.67-.63.08-.63s-.67.63-.08.63Z"/><path class="cls-4" d="M400,773.28c.51,0,.66-.66.07-.66s-.66.66-.07.66Z"/><path class="cls-4" d="M387.29,799.87c.26,0,.94-.39.36-.39-.26,0-.94.39-.36.39Z"/><path class="cls-4" d="M327.57,815.65c.34,0,.92-.51.33-.51-.34,0-.92.51-.33.51Z"/><path class="cls-4" d="M294.44,806.13c.18,0,1-.34.57-.34-.18,0-1,.34-.57.34Z"/><path class="cls-4" d="M326,831.4c.38,0,.91-.58.32-.58-.38,0-.9.58-.32.58Z"/><path class="cls-4" d="M555.39,829.73c.2,0,1-.38.56-.38-.19,0-1,.38-.56.38Z"/><path class="cls-4" d="M593.12,829.73c.2,0,1-.38.56-.38-.2,0-1,.38-.56.38Z"/><path class="cls-4" d="M604.24,812.52c.37,0,.91-.55.33-.55-.37,0-.91.55-.33.55Z"/><path class="cls-4" d="M1618.3,64.31c.51,0,.67-.66.08-.66s-.67.66-.08.66Z"/><path class="cls-4" d="M1635.45,103.48c.27,0,.94-.4.36-.4-.27,0-.94.4-.36.4Z"/><path class="cls-4" d="M1644.88,144.35c.26,0,.94-.39.37-.39-.26,0-1,.39-.37.39Z"/><path class="cls-4" d="M1693.51,45.3c.19,0,1-.36.57-.36-.19,0-1,.36-.57.36Z"/><path class="cls-4" d="M1571,174.3c.38,0,.9-.57.32-.57-.38,0-.9.57-.32.57Z"/><path class="cls-4" d="M1585.15,177.38c.28,0,.94-.43.36-.43-.29,0-.94.43-.36.43Z"/><path class="cls-4" d="M1572.47,205.64c.2,0,1-.37.56-.37-.19,0-1,.37-.56.37Z"/><path class="cls-4" d="M1558.45,183.74c.38,0,.9-.58.31-.58-.38,0-.9.58-.31.58Z"/><path class="cls-4" d="M1670.05,201c.32,0,.92-.49.33-.49-.32,0-.92.49-.33.49Z"/><path class="cls-4" d="M1662.32,180.62c.49,0,.67-.62.08-.62s-.68.62-.08.62Z"/><path class="cls-4" d="M1682.62,207.25c.29,0,.93-.44.35-.44-.3,0-.94.44-.35.44Z"/><path class="cls-4" d="M1758.21,144.48c.51,0,.66-.66.07-.66s-.66.66-.07.66Z"/><path class="cls-4" d="M1745.5,160.09c.29,0,.93-.44.35-.44-.3,0-.94.44-.35.44Z"/><path class="cls-4" d="M1743.92,130.22c.29,0,.94-.43.36-.43-.29,0-.94.43-.36.43Z"/><path class="cls-4" d="M1775.26,131.75c.17,0,1-.35.56-.35-.18,0-1,.35-.56.35Z"/><path class="cls-4" d="M1830.28,122.33c.2,0,1-.37.56-.37-.2,0-1,.37-.56.37Z"/><path class="cls-4" d="M1852.4,138.12c.34,0,.92-.51.33-.51-.33,0-.92.51-.33.51Z"/><path class="cls-4" d="M1853.86,163.2c.19,0,1-.37.56-.37-.19,0-1,.37-.56.37Z"/><path class="cls-4" d="M1890.12,90.93c.29,0,.93-.45.35-.45-.3,0-.93.45-.35.45Z"/><path class="cls-4" d="M1910.55,70.46c.25,0,.94-.38.36-.38-.25,0-.94.38-.36.38Z"/><path class="cls-4" d="M1990.62,37.42c.17,0,1-.33.57-.33-.18,0-1,.33-.57.33Z"/><path class="cls-4" d="M1995.33,76.72c.18,0,1-.33.57-.33-.17,0-1,.33-.57.33Z"/><path class="cls-4" d="M2014.3,64.19c.28,0,.94-.42.36-.42-.27,0-.94.42-.36.42Z"/><path class="cls-4" d="M2028.45,116.07c.29,0,.94-.43.36-.43-.29,0-.94.43-.36.43Z"/><path class="cls-4" d="M2031.49,145.91c.2,0,1-.38.56-.38-.2,0-1,.38-.56.38Z"/><path class="cls-4" d="M2009.6,205.72c.34,0,.92-.52.33-.52-.34,0-.92.52-.33.52Z"/><path class="cls-4" d="M1979.43,235.62c.3,0,1.64-.59.94-.59-.31,0-1.64.59-.94.59Z"/><path class="cls-4" d="M1987.46,279.69c.46,0,1.56-.7.6-.7-.47,0-1.57.7-.6.7Z"/><path class="cls-4" d="M1987.47,303.31c.52,0,1.55-.78.58-.78-.52,0-1.55.78-.58.78Z"/><path class="cls-4" d="M1940.33,336.4c.62,0,1.51-.93.53-.93-.61,0-1.51.93-.53.93Z"/><path class="cls-4" d="M1943.27,366.08c.29,0,1.63-.56,1-.56-.29,0-1.63.56-1,.56Z"/><path class="cls-4" d="M1945,400.84c.6,0,1.52-.91.54-.91-.59,0-1.51.91-.54.91Z"/><path class="cls-4" d="M2033.05,278.14c.49,0,1.56-.73.59-.73-.49,0-1.56.73-.59.73Z"/><path class="cls-4" d="M2023.64,441.71c.6,0,1.52-.91.54-.91-.6,0-1.51.91-.54.91Z"/><path class="cls-4" d="M2033.28,341.19c.84,0,1.11-1.08.13-1.08s-1.11,1.08-.13,1.08Z"/><path class="cls-4" d="M2007.89,383.44c.46,0,1.57-.69.6-.69-.45,0-1.56.69-.6.69Z"/><path class="cls-4" d="M173.21,480.85c.3,0,1.64-.58.94-.58-.3,0-1.64.58-.94.58Z"/><path class="cls-4" d="M953.56,279.46c.45,0,1.57-.67.6-.67-.45,0-1.56.67-.6.67Z"/><path class="cls-4" d="M999.33,234.16c.84,0,1.09-1.11.11-1.11s-1.09,1.11-.11,1.11Z"/><path class="cls-4" d="M1026.64,307c.85,0,1.09-1.12.11-1.12s-1.09,1.12-.11,1.12Z"/><path class="cls-4" d="M839.76,281.74c.45,0,1.57-.68.6-.68-.45,0-1.56.68-.6.68Z"/><path class="cls-4" d="M762.21,293.08c.3,0,1.63-.59.94-.59-.31,0-1.64.59-.94.59Z"/><path class="cls-4" d="M739.62,249.9c.49,0,1.56-.73.59-.73-.48,0-1.56.73-.59.73Z"/><path class="cls-4" d="M958,208.87c.31,0,1.64-.6.93-.6-.31,0-1.64.6-.93.6Z"/><path class="cls-4" d="M896.5,231.64c.29,0,.82,0,1-.27s.27-.35-.09-.35a1.54,1.54,0,0,0-1,.27c-.13.16-.26.35.1.35Z"/><path class="cls-4" d="M939.92,336.43c.54,0,1.54-.81.57-.81-.54,0-1.54.81-.57.81Z"/><path class="cls-4" d="M994.55,370.56c.52,0,1.54-.79.57-.79-.53,0-1.55.79-.57.79Z"/><path class="cls-4" d="M1062.81,400.07c.42,0,1.57-.63.61-.63-.43,0-1.57.63-.61.63Z"/><path class="cls-4" d="M1026.43,418.45c.64,0,1.5-1,.53-1-.64,0-1.5,1-.53,1Z"/><path class="cls-4" d="M1035.74,434.44c.84,0,1.1-1.09.12-1.09s-1.1,1.09-.12,1.09Z"/><path class="cls-4" d="M1010.71,429.91c.85,0,1.09-1.13.11-1.13s-1.09,1.13-.11,1.13Z"/><path class="cls-4" d="M1021.88,450.31c.64,0,1.5-1,.53-1-.64,0-1.51,1-.53,1Z"/><path class="cls-4" d="M1055.82,484.27c.32,0,1.64-.61.93-.61-.32,0-1.64.61-.93.61Z"/><path class="cls-4" d="M1076.71,236.44c.85,0,1.1-1.12.11-1.12-.84,0-1.09,1.12-.11,1.12Z"/><path class="cls-4" d="M1103.78,320.45c.47,0,1.57-.71.6-.71-.47,0-1.56.71-.6.71Z"/><path class="cls-4" d="M1128.65,661.81c.33,0,1.65-.62.93-.62-.32,0-1.64.62-.93.62Z"/><path class="cls-4" d="M1015,682.39c.54,0,1.54-.81.57-.81-.54,0-1.54.81-.57.81Z"/><path class="cls-4" d="M1040.3,712.14c.85,0,1.09-1.13.11-1.13s-1.09,1.13-.11,1.13Z"/><path class="cls-4" d="M1071.94,682.4c.54,0,1.53-.83.56-.83-.55,0-1.54.83-.56.83Z"/><path class="cls-4" d="M1083.53,732.58c.82,0,1.12-1,.13-1-.81,0-1.12,1-.13,1Z"/><path class="cls-4" d="M1083.31,800.73c.51,0,1.55-.78.58-.78-.52,0-1.55.78-.58.78Z"/><path class="cls-4" d="M940.14,748.52c.83,0,1.11-1.06.13-1.06-.83,0-1.11,1.06-.13,1.06Z"/><path class="cls-4" d="M853.45,746.17c.6,0,1.51-.91.54-.91-.61,0-1.52.91-.54.91Z"/><path class="cls-4" d="M803.36,707.41c.52,0,1.54-.78.57-.78-.52,0-1.55.78-.57.78Z"/><path class="cls-4" d="M757.82,721c.44,0,1.57-.66.61-.66-.45,0-1.57.66-.61.66Z"/><path class="cls-4" d="M721.44,698.37c.59,0,1.51-.9.54-.9-.6,0-1.52.9-.54.9Z"/><path class="cls-4" d="M737.35,775.68c.51,0,1.55-.76.58-.76-.51,0-1.55.76-.58.76Z"/><path class="cls-4" d="M835.21,784.75c.46,0,1.56-.69.6-.69-.47,0-1.57.69-.6.69Z"/><path class="cls-4" d="M962.49,566.19c.3,0,1.64-.57,1-.57-.3,0-1.63.57-1,.57Z"/><path class="cls-4" d="M972,511.81c.82,0,1.11-1.06.13-1.06s-1.12,1.06-.13,1.06Z"/><path class="cls-4" d="M1090.16,536.78c.61,0,1.51-.93.53-.93-.61,0-1.51.93-.53.93Z"/><path class="cls-4" d="M1083.29,604.93c.45,0,1.57-.66.61-.66-.44,0-1.57.66-.61.66Z"/><path class="cls-4" d="M1211,655.52c1.33,0,1.78-1.7.21-1.7-1.33,0-1.78,1.7-.21,1.7Z"/><path class="cls-4" d="M1198.92,712a2.76,2.76,0,0,0,1.64-.44c.28-.24.39-.49-.13-.49a2.75,2.75,0,0,0-1.64.43c-.28.25-.39.5.13.5Z"/><path class="cls-4" d="M1165.1,776c.46,0,1.32-.15,1.52-.65s-.16-.75-.65-.75-1.32.15-1.52.65.16.75.65.75Z"/><path class="cls-4" d="M933,637.19c.47,0,1.32-.14,1.52-.66s-.16-.8-.66-.8-1.32.15-1.52.67.16.79.66.79Z"/><path class="cls-4" d="M932.63,650.62a2.55,2.55,0,0,0,1.64-.44c.28-.25.39-.56-.15-.56a2.58,2.58,0,0,0-1.64.44c-.27.25-.38.56.15.56Z"/><path class="cls-4" d="M953.41,641.67c.45,0,1.33-.15,1.53-.63s-.16-.68-.63-.68-1.33.16-1.53.63.17.68.63.68Z"/><path class="cls-4" d="M1076,286.44a2.69,2.69,0,0,0,1.64-.44c.28-.25.39-.53-.14-.53a2.67,2.67,0,0,0-1.64.44c-.28.25-.39.53.14.53Z"/><path class="cls-4" d="M1069.52,309.49c.51,0,1.29-.14,1.52-.68s-.18-.87-.68-.87-1.29.14-1.52.68.18.87.68.87Z"/><path class="cls-4" d="M1130.92,468.63c.41,0,1.36-.17,1.54-.61s-.15-.57-.6-.57-1.36.16-1.53.6.15.58.59.58Z"/><path class="cls-4" d="M1131.29,503c1.32,0,1.78-1.68.21-1.68-1.32,0-1.79,1.68-.21,1.68Z"/><path class="cls-4" d="M1149.51,603.21c1.35,0,1.75-1.78.18-1.78-1.35,0-1.75,1.78-.18,1.78Z"/><path class="cls-4" d="M1128.65,596.07c.39,0,1.36-.16,1.53-.6s-.15-.55-.59-.55-1.36.17-1.54.6.16.55.6.55Z"/><path class="cls-4" d="M1133.2,616.57c.41,0,1.36-.16,1.54-.6s-.15-.58-.6-.58-1.36.16-1.54.6.15.58.6.58Z"/><path class="cls-4" d="M840,357.49c1.5,0,2-1.95.22-1.95-1.5,0-2,1.95-.22,1.95Z"/><path class="cls-4" d="M883.18,314.19c1.46,0,2-1.84.25-1.84-1.46,0-2,1.84-.25,1.84Z"/><path class="cls-4" d="M1342.94,168.53c1.48,0,2-1.86.25-1.86-1.48,0-2,1.86-.25,1.86Z"/><path class="cls-4" d="M1367.58,220.63c.5,0,1.47-.18,1.73-.69s-.23-.67-.69-.67-1.46.18-1.72.69.22.67.68.67Z"/><path class="cls-4" d="M1317.9,560c1.46,0,2-1.83.26-1.83-1.46,0-2,1.83-.26,1.83Z"/><path class="cls-4" d="M1299.69,603.22c1.44,0,2-1.79.26-1.79-1.44,0-2,1.79-.26,1.79Z"/><path class="cls-4" d="M1222.33,598.75c1.51,0,2-2,.21-2-1.5,0-2,2-.21,2Z"/><path class="cls-4" d="M1429.44,605.57c1.5,0,2-1.94.23-1.94-1.5,0-2,1.94-.23,1.94Z"/><path class="cls-4" d="M1462.85,520.93a3.09,3.09,0,0,0,1.85-.49c.32-.28.42-.6-.16-.6a3.1,3.1,0,0,0-1.85.5c-.32.27-.42.59.16.59Z"/><path class="cls-4" d="M931,396.22c1.53,0,2-2,.2-2-1.53,0-2,2-.2,2Z"/><path class="cls-4" d="M937.39,420.85c.47,0,1.48-.2,1.73-.66s-.22-.56-.65-.56-1.48.2-1.73.66.23.56.65.56Z"/><path class="cls-4" d="M737.81,321.05c.47,0,1.48-.19,1.74-.66s-.23-.57-.66-.57-1.48.19-1.73.66.22.57.65.57Z"/><path class="cls-4" d="M745.13,335.7c.49,0,1.47-.18,1.73-.68s-.23-.64-.68-.64-1.47.18-1.73.68.23.64.68.64Z"/><path class="cls-4" d="M785.72,306.83c1.52,0,2-2,.21-2-1.52,0-2,2-.21,2Z"/><path class="cls-4" d="M1237.81,273.47a3.23,3.23,0,0,0,1.84-.5c.34-.26.43-.52-.14-.52a3.26,3.26,0,0,0-1.84.49c-.34.27-.43.53.14.53Z"/><path class="cls-4" d="M1278.71,314.09c1.5,0,2-1.92.23-1.92-1.49,0-2,1.92-.23,1.92Z"/><path class="cls-4" d="M1318.48,237.12c.5,0,1.46-.18,1.72-.69s-.22-.67-.68-.67-1.46.18-1.72.69.22.67.68.67Z"/><path class="cls-4" d="M1274.66,240.78c.5,0,1.46-.19,1.72-.69s-.22-.68-.68-.68-1.47.18-1.73.69.23.68.69.68Z"/><path class="cls-4" d="M1289.68,273.94c1.51,0,2-2,.21-2-1.51,0-2,2-.21,2Z"/><path class="cls-4" d="M1227.17,430.63c.49,0,1.47-.18,1.73-.67s-.23-.62-.66-.62-1.48.19-1.74.68.23.61.67.61Z"/><path class="cls-4" d="M1234.46,441.54c.47,0,1.49-.2,1.74-.65s-.23-.54-.65-.54-1.48.2-1.73.65.23.54.64.54Z"/><path class="cls-4" d="M1245.12,430.55a3,3,0,0,0,1.85-.5c.32-.28.42-.62-.17-.62a3,3,0,0,0-1.84.5c-.33.27-.43.62.16.62Z"/><path class="cls-4" d="M1384.22,408.79c.51,0,1.46-.18,1.72-.7s-.22-.72-.69-.72-1.47.17-1.73.7.22.72.7.72Z"/><path class="cls-4" d="M1384.18,437.87c.78,0,2.83-1.15,1.1-1.15-.77,0-2.82,1.15-1.1,1.15Z"/><path class="cls-4" d="M1402.15,423.22a3.11,3.11,0,0,0,1.84-.49c.33-.28.43-.58-.15-.58a3.16,3.16,0,0,0-1.85.49c-.33.28-.42.58.16.58Z"/><path class="cls-4" d="M1132.53,255c.46,0,1.23-.69.45-.69-.46,0-1.23.69-.45.69Z"/><path class="cls-4" d="M1132.37,273.18c.23,0,1.3-.44.77-.44-.23,0-1.31.44-.77.44Z"/><path class="cls-4" d="M1194.76,297.62c.4,0,1.24-.61.46-.61-.4,0-1.24.61-.46.61Z"/><path class="cls-4" d="M1184.49,318.21c.44,0,1.22-.67.44-.67-.44,0-1.22.67-.44.67Z"/><path class="cls-4" d="M1217,205.23c.65,0,.89-.84.11-.84s-.9.84-.11.84Z"/><path class="cls-4" d="M1194.77,202.22c.46,0,1.22-.69.44-.69-.46,0-1.22.69-.44.69Z"/><path class="cls-4" d="M1018.56,162.53c.39,0,1.24-.6.46-.6-.39,0-1.24.6-.46.6Z"/><path class="cls-4" d="M1040.44,177.16c.25,0,1.31-.49.75-.49-.25,0-1.31.49-.75.49Z"/><path class="cls-4" d="M1062.62,145c.47,0,1.22-.71.44-.71-.47,0-1.22.71-.44.71Z"/><path class="cls-4" d="M1064.26,197.9c.66,0,.88-.86.1-.86s-.89.86-.1.86Z"/><path class="cls-4" d="M939.13,150.72c.24,0,1.31-.47.75-.47-.25,0-1.31.47-.75.47Z"/><path class="cls-4" d="M934.72,115.49c.27,0,1.32-.49.75-.49-.26,0-1.32.49-.75.49Z"/><path class="cls-4" d="M970.09,149.28c.35,0,1.26-.53.49-.53-.35,0-1.26.53-.49.53Z"/><path class="cls-4" d="M1241.75,381.33c.42,0,1.23-.64.45-.64-.43,0-1.23.64-.45.64Z"/><path class="cls-4" d="M1277,362.22c.39,0,1.24-.6.47-.6-.4,0-1.25.6-.47.6Z"/><path class="cls-4" d="M1324,416.53c.38,0,1.25-.57.48-.57-.38,0-1.25.57-.48.57Z"/><path class="cls-4" d="M1322.36,469.35c.25,0,1.31-.48.75-.48-.26,0-1.32.48-.75.48Z"/><path class="cls-4" d="M1342.91,448.78c.23,0,1.3-.45.76-.45-.24,0-1.31.45-.76.45Z"/><path class="cls-4" d="M1310.61,451.71c.23,0,1.3-.45.75-.45-.23,0-1.3.45-.75.45Z"/><path class="cls-4" d="M1321.05,522.33c.48,0,1.21-.73.43-.73-.49,0-1.21.73-.43.73Z"/><path class="cls-4" d="M1346.17,526.8c.66,0,.89-.85.1-.85s-.89.85-.1.85Z"/><path class="cls-4" d="M1378.15,522.2c.24,0,1.31-.47.75-.47-.24,0-1.31.47-.75.47Z"/><path class="cls-4" d="M1434,501.65c.25,0,1.31-.48.75-.48-.25,0-1.32.48-.75.48Z"/><path class="cls-4" d="M1337.19,594.27c.47,0,1.22-.71.44-.71-.46,0-1.22.71-.44.71Z"/><path class="cls-4" d="M1447.48,566.44c.66,0,.9-.84.11-.84s-.89.84-.11.84Z"/><path class="cls-4" d="M1500.19,453.34c.51,0,1.2-.77.42-.77-.52,0-1.2.77-.42.77Z"/><path class="cls-4" d="M1547.33,318.29c.65,0,.89-.83.11-.83s-.9.83-.11.83Z"/><path class="cls-4" d="M1580.92,324c.4,0,1.24-.6.47-.6-.4,0-1.25.6-.47.6Z"/><path class="cls-4" d="M1563.31,285.92c.46,0,1.22-.7.44-.7-.46,0-1.22.7-.44.7Z"/><path class="cls-4" d="M1259.54,89.24c.66,0,.89-.85.11-.85s-.9.85-.11.85Z"/><path class="cls-4" d="M1263.62,43.53c.24,0,1.31-.47.75-.47-.24,0-1.3.47-.75.47Z"/><path class="cls-4" d="M1290.19,64.14c.38,0,1.25-.57.47-.57-.37,0-1.24.57-.47.57Z"/><path class="cls-4" d="M1373.89,61.22c.4,0,1.24-.6.46-.6-.39,0-1.24.6-.46.6Z"/><path class="cls-4" d="M1381.24,120c.47,0,1.22-.7.44-.7-.46,0-1.22.7-.44.7Z"/><path class="cls-4" d="M1439.82,27.37c.23,0,1.3-.45.75-.45-.23,0-1.3.45-.75.45Z"/><path class="cls-4" d="M1407.51,23c.24,0,1.31-.44.76-.44-.23,0-1.3.44-.76.44Z"/><path class="cls-4" d="M1514.87,5.49c.49,0,1.2-.74.42-.74-.49,0-1.21.74-.42.74Z"/><path class="cls-4" d="M1485.66,36.39c.67,0,.89-.87.1-.87s-.88.87-.1.87Z"/><path class="cls-4" d="M754.27,23.09c.46,0,1.23-.7.44-.7-.45,0-1.22.7-.44.7Z"/><path class="cls-4" d="M754.11,50.86c.23,0,1.3-.44.77-.44-.23,0-1.31.44-.77.44Z"/><path class="cls-4" d="M717.55,81.77c.4,0,1.25-.6.47-.6-.4,0-1.24.6-.47.6Z"/><path class="cls-4" d="M795.23,59.7c.26,0,1.32-.5.75-.5-.26,0-1.32.5-.75.5Z"/><path class="cls-4" d="M851.36,11.45c.68,0,.87-.91.09-.91s-.87.91-.09.91Z"/><path class="cls-4" d="M851.19,59.82c.49,0,1.21-.74.43-.74-.5,0-1.21.74-.43.74Z"/><path class="cls-4" d="M905.51,11.34c.46,0,1.22-.69.44-.69-.46,0-1.22.69-.44.69Z"/><path class="cls-4" d="M896.68,50.91c.36,0,1.25-.54.48-.54-.36,0-1.25.54-.48.54Z"/><path class="cls-4" d="M912.69,90.5c.23,0,1.3-.43.76-.43-.22,0-1.3.43-.76.43Z"/><path class="cls-4" d="M703.89,405.62c.44,0,1.23-.65.45-.65-.43,0-1.23.65-.45.65Z"/><path class="cls-4" d="M725.34,401.25c.34,0,1.26-.51.49-.51-.33,0-1.25.51-.49.51Z"/><path class="cls-4" d="M774.59,500c.25,0,1.32-.48.76-.48-.25,0-1.31.48-.76.48Z"/><path class="cls-4" d="M759.71,547.3c.4,0,1.24-.61.46-.61-.4,0-1.24.61-.46.61Z"/><path class="cls-4" d="M785.32,517.15c.23,0,1.31-.43.77-.43-.23,0-1.3.43-.77.43Z"/><path class="cls-4" d="M796.39,556c.67,0,.89-.87.1-.87s-.88.87-.1.87Z"/><path class="cls-4" d="M766.17,506.59c.51,0,1.2-.78.42-.78-.51,0-1.2.78-.42.78Z"/><path class="cls-4" d="M807.13,526c.69,0,.87-.91.09-.91s-.87.91-.09.91Z"/><path class="cls-4" d="M811.24,487.19c.42,0,1.24-.62.46-.62-.42,0-1.24.62-.46.62Z"/><path class="cls-4" d="M622.48,721.31c.64,0,.9-.81.11-.81s-.9.81-.11.81Z"/><path class="cls-4" d="M658.82,702c.48,0,1.21-.74.43-.74-.49,0-1.21.74-.43.74Z"/><path class="cls-4" d="M663.28,760c.67,0,.88-.88.09-.88s-.88.88-.09.88Z"/><path class="cls-4" d="M705.89,755.48c.22,0,1.3-.44.76-.44-.23,0-1.31.44-.76.44Z"/><path class="cls-4" d="M648.24,536.67c.66,0,.9-.82.11-.82s-.9.82-.11.82Z"/><path class="cls-4" d="M622.16,600.91c.25,0,1.31-.48.75-.48-.25,0-1.32.48-.75.48Z"/><path class="cls-4" d="M665.24,577.35c.4,0,1.24-.6.47-.6-.41,0-1.25.6-.47.6Z"/><path class="cls-4" d="M665.1,620.24c.27,0,1.32-.5.74-.5-.26,0-1.31.5-.74.5Z"/><path class="cls-4" d="M701.6,605.21c.25,0,1.31-.49.75-.49-.26,0-1.32.49-.75.49Z"/><path class="cls-4" d="M697.45,581.67c.42,0,1.23-.64.46-.64-.43,0-1.24.64-.46.64Z"/><path class="cls-4" d="M1620.78,221.44c1.28,0,1.81-1.59.23-1.59-1.28,0-1.81,1.59-.23,1.59Z"/><path class="cls-4" d="M1620.15,296.28a2.64,2.64,0,0,0,1.64-.44c.27-.25.39-.54-.15-.54a2.64,2.64,0,0,0-1.64.44c-.27.25-.38.54.15.54Z"/><path class="cls-4" d="M1646.56,238.69c1.34,0,1.77-1.73.2-1.73-1.34,0-1.77,1.73-.2,1.73Z"/><path class="cls-4" d="M1083.71,360.93c.47,0,1.32-.15,1.52-.66s-.16-.79-.66-.79-1.32.14-1.52.66.16.79.66.79Z"/><path class="cls-4" d="M1109.15,377.84a2.78,2.78,0,0,0,1.64-.44c.28-.24.39-.48-.13-.48a2.78,2.78,0,0,0-1.64.44c-.28.24-.39.48.13.48Z"/><path class="cls-4" d="M1107,352.05a3,3,0,0,0,1.64-.44c.28-.24.4-.43-.12-.43a2.93,2.93,0,0,0-1.64.44c-.28.24-.4.43.12.43Z"/><path class="cls-4" d="M1008.89,623c1.31,0,1.79-1.66.21-1.66-1.3,0-1.79,1.66-.21,1.66Z"/><path class="cls-4" d="M1019.31,588.57c.52,0,1.29-.14,1.52-.68a.65.65,0,0,0-.68-.89c-.52,0-1.29.14-1.52.69a.65.65,0,0,0,.68.88Z"/><path class="cls-4" d="M1042.92,556.33c.5,0,1.29-.14,1.52-.67s-.18-.83-.67-.83-1.28.15-1.52.68.19.82.67.82Z"/><path class="cls-4" d="M896.92,584.22c.47,0,1.32-.15,1.52-.66s-.16-.79-.66-.79-1.32.14-1.52.66.16.79.66.79Z"/><path class="cls-4" d="M898.74,553.89a2.83,2.83,0,0,0,1.64-.44c.28-.24.4-.47-.12-.47a2.81,2.81,0,0,0-1.64.44c-.28.25-.4.47.12.47Z"/><path class="cls-4" d="M923,520c1.33,0,1.77-1.73.19-1.73-1.33,0-1.77,1.73-.19,1.73Z"/><path class="cls-4" d="M886.19,708.79c.51,0,1.29-.14,1.52-.68s-.18-.86-.67-.86-1.29.14-1.52.68.18.86.67.86Z"/><path class="cls-4" d="M950.61,719.54c.52,0,1.29-.14,1.52-.68a.65.65,0,0,0-.69-.89c-.51,0-1.28.14-1.51.69s.18.88.68.88Z"/><path class="cls-4" d="M1002.07,777.25c.7,0,2.51-1,1-1-.7,0-2.51,1-1,1Z"/><path class="cls-4" d="M877.27,807.24a2.76,2.76,0,0,0,1.64-.44c.28-.24.4-.47-.13-.47a2.78,2.78,0,0,0-1.64.44c-.27.24-.39.47.13.47Z"/><path class="cls-4" d="M999.94,730.08c.4,0,1.36-.17,1.54-.61s-.16-.56-.6-.56-1.36.16-1.54.6.15.57.6.57Z"/><path class="cls-4" d="M1008.53,236.29c.42,0,1.36-.16,1.54-.61s-.15-.62-.61-.62-1.36.16-1.54.62.16.61.61.61Z"/><path class="cls-4" d="M1030,259.84c.73,0,2.5-1.1,1-1.1-.74,0-2.51,1.1-1,1.1Z"/><path class="cls-4" d="M1807.2,10.78c.72,0,2.51-1.08,1-1.08-.72,0-2.51,1.08-1,1.08Z"/><path class="cls-4" d="M1717.06,71c.45,0,1.33-.15,1.53-.63s-.16-.68-.63-.68-1.33.15-1.53.63.17.68.63.68Z"/><path class="cls-4" d="M1794.71,45.46c1.34,0,1.76-1.74.19-1.74-1.34,0-1.76,1.74-.19,1.74Z"/><path class="cls-4" d="M375.52,236.53c1.33,0,1.78-1.71.21-1.71-1.33,0-1.78,1.71-.21,1.71Z"/><path class="cls-4" d="M368.42,304.83a2.83,2.83,0,0,0,1.64-.44c.28-.24.4-.45-.12-.45a2.85,2.85,0,0,0-1.64.43c-.28.25-.4.46.12.46Z"/><path class="cls-4" d="M392.33,262c.41,0,1.36-.17,1.54-.61s-.15-.59-.6-.59-1.36.17-1.54.61.15.59.6.59Z"/><path class="cls-4" d="M345.08,38.67c.69,0,2.51-1,1-1-.7,0-2.52,1-1,1Z"/><path class="cls-4" d="M364.43,60.23c.41,0,1.35-.16,1.53-.61s-.15-.61-.61-.61-1.35.16-1.53.61.15.61.61.61Z"/><path class="cls-4" d="M381.58,43c.71,0,2.51-1.07,1-1.07-.71,0-2.51,1.07-1,1.07Z"/><path class="cls-4" d="M40.22,25.87c.42,0,1.36-.16,1.54-.61s-.15-.6-.61-.6-1.35.17-1.53.62.15.59.6.59Z"/><path class="cls-4" d="M70.64,26.11c1.32,0,1.79-1.68.21-1.68-1.31,0-1.78,1.68-.21,1.68Z"/><path class="cls-4" d="M18.76,111.76c.41,0,1.35-.16,1.53-.61s-.15-.61-.61-.61-1.35.16-1.53.61.15.61.61.61Z"/><path class="cls-4" d="M62.06,105.58c1.35,0,1.77-1.74.2-1.74-1.35,0-1.77,1.74-.2,1.74Z"/><path class="cls-4" d="M35.91,81.61c.7,0,2.51-1,1-1-.7,0-2.51,1-1,1Z"/><path class="cls-4" d="M147.55,107.37c.69,0,2.52-1,1-1-.69,0-2.52,1-1,1Z"/><path class="cls-4" d="M201.27,94.64c.44,0,1.33-.16,1.53-.64s-.17-.69-.63-.69-1.33.15-1.53.64.16.69.63.69Z"/><path class="cls-4" d="M42.73,264.43c1.32,0,1.79-1.69.21-1.69-1.32,0-1.78,1.69-.21,1.69Z"/><path class="cls-4" d="M151.91,367.39c.5,0,1.29-.14,1.52-.67s-.18-.82-.67-.82-1.29.14-1.52.67.18.82.67.82Z"/><path class="cls-4" d="M177.67,406.05c.51,0,1.29-.15,1.52-.68s-.18-.83-.67-.83-1.28.14-1.52.67.19.84.67.84Z"/><path class="cls-4" d="M177.67,380.26c.5,0,1.29-.14,1.52-.66s-.18-.81-.66-.81-1.29.15-1.52.67.18.8.66.8Z"/><path class="cls-4" d="M222.7,455.21c.73,0,2.51-1.08,1-1.08-.73,0-2.51,1.08-1,1.08Z"/><path class="cls-4" d="M226.72,491.61a2.93,2.93,0,0,0,1.64-.44c.28-.24.4-.43-.12-.43a2.85,2.85,0,0,0-1.64.44c-.28.24-.4.43.12.43Z"/><path class="cls-4" d="M272.47,462c1.33,0,1.77-1.72.2-1.72-1.33,0-1.78,1.72-.2,1.72Z"/><path class="cls-4" d="M285,511.08c.41,0,1.36-.16,1.54-.6s-.15-.57-.6-.57-1.36.16-1.54.6.15.57.6.57Z"/><path class="cls-4" d="M347.61,500.62c1.34,0,1.78-1.72.2-1.72-1.33,0-1.77,1.72-.2,1.72Z"/><path class="cls-4" d="M360.11,483.09c.68,0,2.51-1,1-1-.69,0-2.52,1-1,1Z"/><path class="cls-4" d="M469.63,485.33c.41,0,1.36-.16,1.53-.61s-.15-.59-.6-.59-1.36.16-1.54.61.16.59.61.59Z"/><path class="cls-4" d="M566.23,270.58c.74,0,2.5-1.11,1-1.11-.74,0-2.5,1.11-1,1.11Z"/><path class="cls-4" d="M626.72,243c1.33,0,1.78-1.71.21-1.71-1.33,0-1.78,1.71-.21,1.71Z"/><path class="cls-4" d="M675.46,302.73a2.55,2.55,0,0,0,1.64-.44c.27-.25.39-.56-.15-.56a2.63,2.63,0,0,0-1.64.44c-.27.26-.38.56.15.56Z"/><path class="cls-4" d="M473.94,262.11c.45,0,1.33-.15,1.53-.64s-.17-.7-.63-.7-1.33.15-1.53.64.16.7.63.7Z"/><path class="cls-4" d="M587.75,191.32c.47,0,1.32-.14,1.52-.66s-.16-.8-.66-.8-1.32.14-1.52.66.16.8.66.8Z"/><path class="cls-4" d="M826.07,206.35c.47,0,1.32-.14,1.52-.66s-.16-.8-.66-.8-1.32.14-1.52.66.16.8.66.8Z"/><path class="cls-4" d="M845.35,165.4c.39,0,1.36-.17,1.54-.6s-.16-.55-.59-.55-1.37.17-1.54.6.15.55.59.55Z"/><path class="cls-4" d="M415.93,642c.68,0,2.51-1,1-1-.68,0-2.52,1-1,1Z"/><path class="cls-4" d="M240.25,747.47c1.28,0,1.81-1.6.23-1.6-1.29,0-1.81,1.6-.23,1.6Z"/><path class="cls-4" d="M160.48,745.21c.45,0,1.33-.15,1.53-.65s-.17-.72-.64-.72-1.33.15-1.53.64.16.73.64.73Z"/><path class="cls-4" d="M153.72,689.15a2.83,2.83,0,0,0,1.64-.44c.28-.25.4-.46-.12-.46a2.85,2.85,0,0,0-1.64.44c-.28.24-.4.46.12.46Z"/><path class="cls-4" d="M31.66,713c.47,0,1.33-.15,1.53-.65s-.16-.76-.65-.76-1.32.15-1.53.65.17.76.65.76Z"/><path class="cls-4" d="M12.29,764.35c.68,0,2.51-1,1-1-.69,0-2.52,1-1,1Z"/><path class="cls-4" d="M439.29,753.59a2.71,2.71,0,0,0,1.64-.44c.27-.25.38-.52-.15-.52a2.6,2.6,0,0,0-1.63.44c-.28.24-.39.52.14.52Z"/><path class="cls-4" d="M518.72,635.49a2.76,2.76,0,0,0,1.64-.44c.28-.24.39-.5-.13-.5a2.76,2.76,0,0,0-1.64.44c-.28.25-.39.5.13.5Z"/><path class="cls-4" d="M615.66,584.23c.47,0,1.32-.15,1.52-.67s-.16-.8-.66-.8-1.32.15-1.52.67.16.8.66.8Z"/><path class="cls-4" d="M272.25,186.86c.35,0,1-.1,1.14-.5s-.12-.63-.5-.63-1,.11-1.14.51.11.62.5.62Z"/><path class="cls-4" d="M283,219.05c.35,0,1-.11,1.14-.5s-.11-.6-.49-.6-1,.11-1.15.5.12.6.5.6Z"/><path class="cls-4" d="M298,218.9c.53,0,1.88-.8.73-.8-.54,0-1.89.8-.73.8Z"/><path class="cls-4" d="M325.68,126.54a1.88,1.88,0,0,0,1.23-.33c.16-.19.33-.39-.1-.39s-1,.05-1.23.33-.33.39.1.39Z"/><path class="cls-4" d="M349.78,150.44c1,0,1.34-1.28.16-1.28-1,0-1.34,1.28-.16,1.28Z"/><path class="cls-4" d="M639.38,412.27c.71,0,1.83-1.07.66-1.07-.71,0-1.83,1.07-.66,1.07Z"/><path class="cls-4" d="M669.7,418.85c1,0,1.31-1.36.13-1.36-1,0-1.31,1.36-.13,1.36Z"/><path class="cls-4" d="M560,693.58c.36,0,1-.1,1.13-.51a.49.49,0,0,0-.51-.67c-.37,0-1,.11-1.14.52a.49.49,0,0,0,.52.66Z"/><path class="cls-4" d="M564.22,710.65c.64,0,1.85-1,.68-1-.64,0-1.85,1-.68,1Z"/><path class="cls-4" d="M566.37,721.4c.66,0,1.85-1,.68-1-.66,0-1.85,1-.68,1Z"/><path class="cls-4" d="M725.52,659.32c1,0,1.31-1.36.13-1.36-1,0-1.3,1.36-.13,1.36Z"/><path class="cls-4" d="M729.81,650.71c1,0,1.32-1.31.15-1.31-1,0-1.33,1.31-.15,1.31Z"/><path class="cls-4" d="M744.59,669.93c.35,0,1-.11,1.14-.5s-.11-.61-.5-.61-1,.11-1.14.5.12.61.5.61Z"/><path class="cls-4" d="M989.34,684.92c.68,0,1.84-1,.66-1-.68,0-1.83,1-.66,1Z"/><path class="cls-4" d="M987.21,702.16c.36,0,1-.1,1.14-.51a.48.48,0,0,0-.51-.65c-.36,0-1,.1-1.14.51a.48.48,0,0,0,.51.65Z"/><path class="cls-4" d="M1124.61,727.88c.71,0,1.82-1.07.65-1.07-.71,0-1.82,1.07-.65,1.07Z"/><path class="cls-4" d="M1126.73,772.88c.59,0,1.87-.89.7-.89-.59,0-1.86.89-.7.89Z"/><path class="cls-4" d="M1127,809.59c1,0,1.32-1.32.14-1.32-1,0-1.32,1.32-.14,1.32Z"/><path class="cls-4" d="M1038.7,760c.58,0,1.87-.86.71-.86-.58,0-1.87.86-.71.86Z"/><path class="cls-4" d="M1047.31,775.1c.69,0,1.83-1,.66-1-.69,0-1.83,1-.66,1Z"/><path class="cls-4" d="M1055.86,768.52c.52,0,1.89-.77.74-.77-.52,0-1.89.77-.74.77Z"/><path class="cls-4" d="M1026.09,803.11c1,0,1.34-1.24.16-1.24-1,0-1.34,1.24-.16,1.24Z"/><path class="cls-4" d="M878,253.48c1,0,1.34-1.26.16-1.26-1,0-1.34,1.26-.16,1.26Z"/><path class="cls-4" d="M843.33,191.06c.62,0,1.86-.94.69-.94-.62,0-1.86.94-.69.94Z"/><path class="cls-4" d="M886.05,210.27a1.94,1.94,0,0,0,1.23-.33c.17-.19.33-.38-.1-.38a1.88,1.88,0,0,0-1.23.33c-.16.19-.33.38.1.38Z"/><path class="cls-4" d="M879.81,150.2c.55,0,1.88-.81.73-.81-.55,0-1.88.81-.73.81Z"/><path class="cls-4" d="M866.73,201.68a1.88,1.88,0,0,0,1.23-.33c.16-.19.33-.38-.1-.38s-1,.05-1.23.33-.33.38.1.38Z"/><path class="cls-4" d="M909.89,182.48c.63,0,1.85-1,.68-1-.63,0-1.85,1-.68,1Z"/><path class="cls-4" d="M729.56,219c.7,0,1.82-1.06.65-1.06-.71,0-1.83,1.06-.65,1.06Z"/><path class="cls-4" d="M401.46,678.08c.57,0,1.62-.19,1.91-.78s-.24-.81-.77-.81-1.63.2-1.92.78.25.81.78.81Z"/><path class="cls-4" d="M357.15,774.76c.53,0,1.65-.22,1.94-.72s-.27-.57-.71-.57-1.65.22-1.94.72.27.57.71.57Z"/><path class="cls-4" d="M445.7,766.51c.54,0,1.63-.21,1.92-.74s-.25-.66-.73-.66-1.64.22-1.93.74.26.66.74.66Z"/><path class="cls-4" d="M501.54,664.05c1,0,1.36-1.19.17-1.19-1,0-1.36,1.19-.17,1.19Z"/><path class="cls-4" d="M495.77,650.18c.36,0,1-.1,1.14-.5s-.11-.62-.5-.62-1,.1-1.14.5.11.62.5.62Z"/><path class="cls-4" d="M514.88,658.25a2,2,0,0,0,1.23-.33c.18-.19.34-.33-.08-.33a2.09,2.09,0,0,0-1.23.33c-.17.19-.34.33.08.33Z"/><path class="cls-4" d="M584.28,611.37c.63,0,1.85-1,.68-1-.63,0-1.85,1-.68,1Z"/><path class="cls-4" d="M584.27,628c.61,0,1.86-.92.7-.92-.61,0-1.86.92-.7.92Z"/><path class="cls-4" d="M595.6,628.09c1,0,1.36-1.2.17-1.2-1,0-1.36,1.2-.17,1.2Z"/><path class="cls-4" d="M612,594.8c.68,0,1.84-1,.67-1-.68,0-1.84,1-.67,1Z"/><path class="cls-4" d="M625.79,716.57c.35,0,1-.11,1.14-.5s-.11-.61-.49-.61-1,.11-1.14.5.11.61.49.61Z"/><path class="cls-4" d="M683.64,605.69a2,2,0,0,0,1.23-.33c.17-.19.33-.33-.09-.33a2.08,2.08,0,0,0-1.23.32c-.17.19-.33.34.09.34Z"/><path class="cls-4" d="M725.38,686.12c.72,0,1.83-1.07.66-1.07-.72,0-1.83,1.07-.66,1.07Z"/><path class="cls-4" d="M697.72,733.16c.35,0,1-.11,1.14-.5s-.11-.59-.49-.59-1,.11-1.14.5.11.59.49.59Z"/><path class="cls-4" d="M805.59,686c.58,0,1.86-.87.7-.87-.58,0-1.87.87-.7.87Z"/><path class="cls-4" d="M849.84,705.34c.52,0,1.88-.78.73-.78-.52,0-1.89.78-.73.78Z"/><path class="cls-4" d="M836,473.06c.67,0,1.85-1,.68-1-.67,0-1.85,1-.68,1Z"/><path class="cls-4" d="M907.93,547.65c.53,0,1.89-.78.73-.78-.52,0-1.88.78-.73.78Z"/><path class="cls-4" d="M908,630.73c.62,0,1.85-1,.68-1-.62,0-1.85,1-.68,1Z"/><path class="cls-4" d="M769.4,522.7a2,2,0,0,0,1.23-.33c.17-.19.34-.34-.09-.34a2,2,0,0,0-1.23.33c-.17.18-.33.34.09.34Z"/><path class="cls-4" d="M780.7,511.77c.62,0,1.85-.94.68-.94-.62,0-1.85.94-.68.94Z"/><path class="cls-4" d="M780.47,531a2,2,0,0,0,1.23-.33c.17-.18.33-.33-.09-.33a2,2,0,0,0-1.23.33c-.17.19-.33.33.09.33Z"/><path class="cls-4" d="M955,398.31c.58,0,1.87-.88.7-.88-.58,0-1.87.88-.7.88Z"/><path class="cls-4" d="M966.31,426.15c1,0,1.35-1.24.17-1.24-1,0-1.35,1.24-.17,1.24Z"/><path class="cls-4" d="M1001.8,398.24c.34,0,1,0,1.23-.33s.33-.41-.11-.41-1,0-1.23.33-.33.41.11.41Z"/><path class="cls-4" d="M1032.45,415c.64,0,1.85-1,.68-1-.64,0-1.85,1-.68,1Z"/><path class="cls-4" d="M1104.4,359.7c.36,0,1-.1,1.14-.5s-.11-.62-.5-.62-1,.1-1.14.5.11.62.5.62Z"/><path class="cls-4" d="M1115.22,425.88a2,2,0,0,0,1.23-.33c.17-.19.33-.36-.1-.36a2,2,0,0,0-1.23.33c-.16.19-.33.36.1.36Z"/><path class="cls-4" d="M1143.12,495.22c.69,0,1.83-1,.66-1-.69,0-1.83,1-.66,1Z"/><path class="cls-4" d="M1145.65,475.68a1.92,1.92,0,0,0,1.23-.33c.17-.19.33-.37-.1-.37a2,2,0,0,0-1.23.33c-.16.19-.33.37.1.37Z"/><path class="cls-4" d="M1160,489.84c1,0,1.3-1.36.13-1.36s-1.31,1.36-.13,1.36Z"/><path class="cls-4" d="M1206.75,622.48c.7,0,1.83-1.05.66-1.05-.69,0-1.83,1.05-.66,1.05Z"/><path class="cls-4" d="M1209.78,669.64c1,0,1.32-1.31.14-1.31-1,0-1.32,1.31-.14,1.31Z"/><path class="cls-4" d="M1206.75,699.92c.66,0,1.84-1,.67-1-.67,0-1.84,1-.67,1Z"/><path class="cls-4" d="M1217.83,622.52c.35,0,1-.11,1.14-.51s-.12-.62-.5-.62-1,.11-1.14.51.11.62.5.62Z"/><path class="cls-4" d="M1240.2,575.56c1,0,1.34-1.27.16-1.27-1,0-1.34,1.27-.16,1.27Z"/><path class="cls-4" d="M1275.89,594.71c.55,0,1.87-.83.71-.83-.55,0-1.87.83-.71.83Z"/><path class="cls-4" d="M1245.46,647.3c.59,0,1.87-.89.7-.89-.59,0-1.86.89-.7.89Z"/><path class="cls-4" d="M1342.31,578.22c.7,0,1.83-1.06.66-1.06-.7,0-1.83,1.06-.66,1.06Z"/><path class="cls-4" d="M1303.58,542.25c.69,0,1.83-1,.66-1-.69,0-1.83,1-.66,1Z"/><path class="cls-4" d="M1331,561.42a2.09,2.09,0,0,0,1.23-.33c.17-.19.34-.32-.08-.32a2,2,0,0,0-1.23.33c-.18.18-.34.32.08.32Z"/><path class="cls-4" d="M1334.26,500.86c1,0,1.34-1.26.16-1.26-1,0-1.34,1.26-.16,1.26Z"/><path class="cls-4" d="M1430.82,608.56c.58,0,1.86-.88.7-.88-.59,0-1.87.88-.7.88Z"/><path class="cls-4" d="M1436.38,589.3c.34,0,1-.1,1.14-.49s-.11-.6-.49-.6-1,.11-1.15.5.12.59.5.59Z"/><path class="cls-4" d="M1453,572.65c.65,0,1.85-1,.68-1-.65,0-1.85,1-.68,1Z"/><path class="cls-4" d="M1464.05,503.59c.37,0,1-.1,1.14-.52a.48.48,0,0,0-.51-.66c-.37,0-1,.1-1.14.51a.49.49,0,0,0,.51.67Z"/><path class="cls-4" d="M1480.88,506.38c1,0,1.35-1.23.17-1.23-1,0-1.35,1.23-.17,1.23Z"/><path class="cls-4" d="M1270.39,356.93c.35,0,1-.11,1.14-.5s-.11-.61-.5-.61-1,.1-1.14.5.12.61.5.61Z"/><path class="cls-4" d="M1405.7,376.08a1.92,1.92,0,0,0,1.23-.33c.17-.18.33-.36-.09-.36a1.92,1.92,0,0,0-1.23.33c-.17.19-.33.36.09.36Z"/><path class="cls-4" d="M1389.32,387.27c.62,0,1.86-.93.7-.93-.62,0-1.86.93-.7.93Z"/><path class="cls-4" d="M1361.44,406.52a1.94,1.94,0,0,0,1.23-.33c.17-.19.33-.37-.1-.37a2,2,0,0,0-1.23.33c-.16.19-.33.37.1.37Z"/><path class="cls-4" d="M1585.78,296.08c.35,0,1-.1,1.13-.51s-.11-.63-.5-.63-1,.1-1.14.5.12.64.51.64Z"/><path class="cls-4" d="M1613.2,279.27c.33,0,1,0,1.22-.33s.33-.39-.1-.39a1.88,1.88,0,0,0-1.23.33c-.16.19-.33.39.11.39Z"/><path class="cls-4" d="M1626.77,163.91c.51,0,1.89-.76.74-.76-.51,0-1.89.76-.74.76Z"/><path class="cls-4" d="M1627.05,174.69c1,0,1.36-1.2.18-1.2-1,0-1.36,1.2-.18,1.2Z"/><path class="cls-4" d="M380.74,300.69a2,2,0,0,0,1.22-.33c.17-.19.34-.37-.09-.37a2,2,0,0,0-1.23.33c-.17.19-.33.37.1.37Z"/><path class="cls-4" d="M384.08,263.29c.59,0,1.86-.89.7-.89-.6,0-1.87.89-.7.89Z"/><path class="cls-4" d="M235.84,430.28c.35,0,.91-.53.33-.53-.35,0-.92.53-.33.53Z"/><path class="cls-4" d="M223.47,513.14c.5,0,.66-.65.07-.65s-.66.65-.07.65Z"/><path class="cls-4" d="M301.44,169.31c.28,0,.94-.41.36-.41-.27,0-.94.41-.36.41Z"/><path class="cls-4" d="M349.9,99.08c.37,0,.9-.56.31-.56-.37,0-.9.56-.31.56Z"/><path class="cls-4" d="M610.93,208.5c.51,0,.66-.67.07-.67s-.66.67-.07.67Z"/><path class="cls-4" d="M660.78,277.12c.29,0,.94-.43.36-.43-.29,0-.94.43-.36.43Z"/><path class="cls-4" d="M829.66,288.18c.51,0,.65-.68.07-.68s-.66.68-.07.68Z"/><path class="cls-4" d="M1239,46c.51,0,.66-.68.07-.68s-.66.68-.07.68Z"/><path class="cls-4" d="M1243.53,99c.26,0,.94-.38.37-.38-.26,0-1,.38-.37.38Z"/><path class="cls-4" d="M1310.61,131.79c.2,0,1-.37.56-.37-.19,0-1,.37-.56.37Z"/><path class="cls-4" d="M1303,77.24c.49,0,.67-.62.08-.62s-.67.62-.08.62Z"/><path class="cls-4" d="M1384.15,67.8c.33,0,.93-.49.34-.49-.32,0-.92.49-.34.49Z"/><path class="cls-4" d="M1384.14,128.69c.28,0,.94-.42.36-.42-.28,0-.94.42-.36.42Z"/><path class="cls-4" d="M45.6,44.16c.48,0,.68-.6.08-.6s-.67.6-.08.6Z"/><path class="cls-4" d="M45.36,114.93c.17,0,1-.34.56-.34-.17,0-1,.34-.56.34Z"/><path class="cls-4" d="M124.88,651c.34,0,.92-.51.33-.51-.33,0-.91.51-.33.51Z"/><path class="cls-4" d="M141.88,741.72c.28,0,.94-.42.36-.42-.28,0-.94.42-.36.42Z"/><path class="cls-4" d="M280.84,651c.26,0,1-.38.37-.38-.26,0-.94.38-.37.38Z"/><path class="cls-4" d="M295.05,747.47c.37,0,.9-.57.32-.57-.38,0-.91.57-.32.57Z"/><path class="cls-4" d="M366,500.75c.39,0,.9-.59.31-.59-.39,0-.9.59-.31.59Z"/><path class="cls-4" d="M289.36,497.85c.31,0,.93-.46.35-.46-.31,0-.93.46-.35.46Z"/><path class="cls-4" d="M411.3,599.91c.27,0,.94-.4.36-.4-.27,0-.94.4-.36.4Z"/><path class="cls-4" d="M1681.83,117.88c.37,0,.91-.56.33-.56-.37,0-.91.56-.33.56Z"/><path class="cls-4" d="M1664.81,69.62c.31,0,.92-.47.34-.47-.31,0-.93.47-.34.47Z"/><path class="cls-4" d="M1710.31,149.1c.49,0,.68-.61.09-.61s-.68.61-.09.61Z"/><path class="cls-4" d="M1775.3,49.7c.16,0,1-.33.57-.33-.17,0-1,.33-.57.33Z"/><path class="cls-4" d="M1750.05,48.74c.19,0,1-.35.56-.35-.18,0-1,.35-.56.35Z"/><path class="cls-4" d="M1727.72,75.27c.38,0,.9-.58.32-.58-.38,0-.91.58-.32.58Z"/><path class="cls-4" d="M1726.51,89.81c.49,0,.68-.6.09-.6s-.68.6-.09.6Z"/><path class="cls-4" d="M1833.5,47.55c.49,0,.68-.61.08-.61s-.67.61-.08.61Z"/><path class="cls-4" d="M1871.66,26.31c.26,0,.94-.39.37-.39-.26,0-.94.39-.37.39Z"/><path class="cls-4" d="M1813.45,10.44c.19,0,1-.36.56-.36-.19,0-1,.36-.56.36Z"/><path class="cls-4" d="M1467,14.64a2.23,2.23,0,0,0,1.43-.38c.21-.22.37-.46-.12-.46a2.28,2.28,0,0,0-1.44.39c-.21.22-.36.45.13.45Z"/><path class="cls-4" d="M1542.59,42.6c.41,0,1.16-.13,1.33-.58s-.14-.7-.57-.7-1.16.13-1.34.58.14.7.58.7Z"/><path class="cls-4" d="M1566.35,59.71c.38,0,1.18-.14,1.34-.56s-.14-.6-.55-.6-1.18.14-1.34.56.13.6.55.6Z"/><path class="cls-4" d="M1635,232.77c.4,0,1.17-.13,1.33-.57s-.13-.66-.56-.66-1.17.13-1.34.57.14.66.57.66Z"/><path class="cls-4" d="M1649.29,297.26a2.38,2.38,0,0,0,1.43-.39c.2-.22.39-.38-.1-.38a2.38,2.38,0,0,0-1.44.38c-.2.22-.39.39.11.39Z"/><path class="cls-4" d="M1557.13,367.57c.44,0,1.15-.12,1.33-.6a.58.58,0,0,0-.6-.79c-.44,0-1.15.12-1.33.6a.58.58,0,0,0,.6.79Z"/><path class="cls-4" d="M1533.07,436a2.23,2.23,0,0,0,1.43-.38c.21-.22.37-.45-.12-.45a2.27,2.27,0,0,0-1.44.38c-.21.22-.36.45.13.45Z"/><path class="cls-4" d="M1539.67,315.79a2.25,2.25,0,0,0,1.44-.38c.21-.23.36-.47-.13-.47a2.23,2.23,0,0,0-1.43.38c-.21.23-.37.47.12.47Z"/><path class="cls-4" d="M1495,409.7c.37,0,1.18-.14,1.34-.55s-.13-.57-.54-.57-1.18.14-1.34.55.13.57.54.57Z"/><path class="cls-4" d="M1508.23,489c.38,0,1.18-.14,1.34-.55s-.13-.59-.55-.59-1.18.13-1.34.55.14.59.55.59Z"/><path class="cls-4" d="M1485.78,555c.37,0,1.18-.14,1.34-.56s-.14-.58-.55-.58-1.18.13-1.34.55.13.59.55.59Z"/><path class="cls-4" d="M1419.48,421.45a2.23,2.23,0,0,0,1.43-.38c.21-.22.37-.47-.12-.47a2.2,2.2,0,0,0-1.44.39c-.21.22-.36.46.13.46Z"/><path class="cls-4" d="M1240.14,419.05c.42,0,1.15-.12,1.32-.59s-.14-.74-.58-.74-1.16.12-1.33.59.14.74.59.74Z"/><path class="cls-4" d="M1229.56,403.16c.4,0,1.17-.13,1.33-.58s-.13-.66-.57-.66-1.17.12-1.33.57.13.67.57.67Z"/><path class="cls-4" d="M1251,432.3c1.14,0,1.58-1.41.2-1.41-1.13,0-1.58,1.41-.2,1.41Z"/><path class="cls-4" d="M1257,401.65a2.17,2.17,0,0,0,1.43-.38c.21-.23.36-.49-.13-.49a2.19,2.19,0,0,0-1.44.38c-.2.23-.36.49.14.49Z"/><path class="cls-4" d="M681.39,420.18c.63,0,2.19-.95.84-.95-.63,0-2.19.95-.84.95Z"/><path class="cls-4" d="M692,411.05c.38,0,1.17-.13,1.33-.56s-.13-.62-.55-.62-1.18.13-1.34.56.13.62.56.62Z"/><path class="cls-4" d="M711.82,397.92c.43,0,1.15-.12,1.33-.59s-.14-.75-.59-.75-1.15.12-1.33.6.14.74.59.74Z"/><path class="cls-4" d="M725,430.9c.39,0,1.16-.13,1.33-.58s-.13-.67-.57-.67-1.17.13-1.33.57.13.68.57.68Z"/><path class="cls-4" d="M343.27,5.48c.67,0,2.19-1,.83-1-.66,0-2.18,1-.83,1Z"/><path class="cls-4" d="M343.32,30.75c.43,0,1.15-.12,1.33-.6s-.14-.75-.59-.75-1.15.12-1.33.59.14.76.59.76Z"/><path class="cls-4" d="M369.72,5.59c.39,0,1.17-.13,1.33-.57s-.13-.65-.56-.65-1.17.12-1.34.56.14.66.57.66Z"/><path class="cls-4" d="M83.39,21.53c1.13,0,1.58-1.4.2-1.4-1.12,0-1.58,1.4-.2,1.4Z"/><path class="cls-4" d="M105.52,37.15c.63,0,2.2-.94.85-.94-.63,0-2.2.94-.85.94Z"/><path class="cls-4" d="M97.6,26.6c.66,0,2.19-1,.84-1-.66,0-2.19,1-.84,1Z"/><path class="cls-4" d="M27.65,12.26c.43,0,1.15-.12,1.33-.6s-.14-.75-.59-.75-1.15.12-1.33.59a.56.56,0,0,0,.59.76Z"/><path class="cls-4" d="M22.07,51.6a2.32,2.32,0,0,0,1.44-.39c.19-.21.38-.4-.11-.4A2.32,2.32,0,0,0,22,51.2c-.19.22-.38.4.11.4Z"/><path class="cls-4" d="M34.24,30.7c.4,0,1.17-.12,1.34-.57s-.14-.69-.58-.69-1.17.13-1.33.58.13.68.57.68Z"/><path class="cls-4" d="M99,98c.38,0,1.18-.13,1.34-.55s-.14-.61-.56-.61-1.17.14-1.33.56.13.6.55.6Z"/><path class="cls-4" d="M109.49,130.93c.64,0,2.19-1,.84-1-.65,0-2.19,1-.84,1Z"/><path class="cls-4" d="M114.78,113.79c.67,0,2.18-1,.82-1-.67,0-2.18,1-.82,1Z"/><path class="cls-4" d="M31.6,183.9c.4,0,1.17-.12,1.33-.57s-.13-.66-.57-.66-1.17.12-1.33.57.13.66.57.66Z"/><path class="cls-4" d="M28.67,223.29a2.39,2.39,0,0,0,1.44-.39c.2-.21.39-.37-.1-.37a2.38,2.38,0,0,0-1.44.38c-.2.22-.39.38.1.38Z"/><path class="cls-4" d="M51.4,202.36c.38,0,1.18-.13,1.34-.56s-.13-.61-.55-.61-1.18.14-1.34.56.13.61.55.61Z"/><path class="cls-4" d="M33.21,279.11c1.14,0,1.56-1.46.19-1.46-1.15,0-1.57,1.46-.19,1.46Z"/><path class="cls-4" d="M35.53,293.41c.66,0,2.18-1,.83-1-.66,0-2.19,1-.83,1Z"/><path class="cls-4" d="M36.88,306.73c.39,0,1.17-.13,1.33-.57s-.13-.65-.56-.65-1.17.13-1.34.57.14.65.57.65Z"/><path class="cls-4" d="M31.89,378.16c1.14,0,1.56-1.44.19-1.44-1.15,0-1.57,1.44-.19,1.44Z"/><path class="cls-4" d="M32.88,424.15c.64,0,2.19-1,.84-1-.64,0-2.19,1-.84,1Z"/><path class="cls-4" d="M49.05,450.78c1.12,0,1.59-1.39.2-1.39-1.12,0-1.58,1.39-.2,1.39Z"/><path class="cls-4" d="M52.46,509.94a2.23,2.23,0,0,0,1.43-.39c.19-.22.38-.44-.12-.44a2.21,2.21,0,0,0-1.43.38c-.2.22-.39.45.12.45Z"/><path class="cls-4" d="M196.42,410.86a2.28,2.28,0,0,0,1.43-.39c.2-.22.39-.41-.11-.41a2.28,2.28,0,0,0-1.43.39c-.2.22-.39.41.11.41Z"/><path class="cls-4" d="M136.24,359.72c1.18,0,1.54-1.54.17-1.54-1.18,0-1.54,1.54-.17,1.54Z"/><path class="cls-4" d="M153.07,319.81c.65,0,2.19-1,.84-1-.64,0-2.19,1-.84,1Z"/><path class="cls-4" d="M254.82,293.55c.41,0,1.15-.13,1.33-.58s-.14-.7-.58-.7-1.15.13-1.33.58.14.7.58.7Z"/><path class="cls-4" d="M222.08,284.39c1.15,0,1.57-1.45.19-1.45-1.15,0-1.57,1.45-.19,1.45Z"/><path class="cls-4" d="M321.15,227.65c1.19,0,1.54-1.55.17-1.55-1.19,0-1.54,1.55-.17,1.55Z"/><path class="cls-4" d="M47.08,730.53c.35,0,1.19-.14,1.34-.53s-.13-.52-.53-.52-1.19.14-1.34.53.13.52.53.52Z"/><path class="cls-4" d="M196.3,763.24c.63,0,2.19-1,.84-1-.64,0-2.2,1-.84,1Z"/><path class="cls-4" d="M265.5,570.53c.43,0,1.15-.12,1.33-.6s-.14-.75-.59-.75-1.15.12-1.33.6.14.75.59.75Z"/><path class="cls-4" d="M563.67,417.39a2.25,2.25,0,0,0,1.44-.38c.19-.22.38-.43-.12-.43a2.21,2.21,0,0,0-1.43.38c-.2.22-.39.43.11.43Z"/><path class="cls-4" d="M513.29,516c1.17,0,1.55-1.52.17-1.52-1.17,0-1.55,1.52-.17,1.52Z"/><path class="cls-4" d="M560.31,472.2c.4,0,1.17-.13,1.33-.57s-.13-.67-.56-.67-1.17.13-1.34.57.13.67.57.67Z"/><path class="cls-4" d="M917,93.74c.43,0,1.14-.12,1.32-.61a.56.56,0,0,0-.6-.77c-.43,0-1.15.11-1.32.6a.57.57,0,0,0,.6.78Z"/><path class="cls-4" d="M1011.65,86.42c.42,0,1.15-.12,1.33-.58s-.14-.73-.58-.73-1.16.12-1.33.59.14.72.58.72Z"/><path class="cls-4" d="M1594.29,126.51c1.13,0,1.57-1.41.19-1.41-1.13,0-1.57,1.41-.19,1.41Z"/><path class="cls-4" d="M578.52,217.45c.41,0,1.15-.13,1.33-.59s-.14-.71-.58-.71-1.16.13-1.33.58.14.72.58.72Z"/><path class="cls-4" d="M589.43,173.74c.4,0,1.17-.12,1.33-.57s-.13-.67-.57-.67-1.17.12-1.33.57.13.67.57.67Z"/><path class="cls-4" d="M520.28,170.13c.42,0,1.15-.13,1.33-.58s-.14-.72-.58-.72-1.15.13-1.33.59.14.71.58.71Z"/><path class="cls-4" d="M866.92,298.32c.6,0,2.2-.9.85-.9-.6,0-2.2.9-.85.9Z"/><path class="cls-4" d="M1295.84,59.83a2.37,2.37,0,0,0,1.43-.38c.2-.22.39-.39-.1-.39a2.38,2.38,0,0,0-1.44.38c-.2.22-.39.39.11.39Z"/><path class="cls-4" d="M1311.25,98.92c.61,0,2.2-.92.85-.92-.61,0-2.2.92-.85.92Z"/><path class="cls-4" d="M1434.79,14.39c.63,0,2.2-.92.85-.92-.62,0-2.19.92-.85.92Z"/><path class="cls-4" d="M1404.77,25.47c1.13,0,1.59-1.4.21-1.4-1.13,0-1.59,1.4-.21,1.4Z"/><path class="cls-4" d="M1393.66,49.27c.43,0,1.16-.13,1.33-.59s-.14-.73-.58-.73-1.15.13-1.33.59.14.73.58.73Z"/><path class="cls-4" d="M481.15,385.17c.39,0,1.18-.13,1.34-.57s-.13-.64-.56-.64-1.18.13-1.34.57.13.64.56.64Z"/><path class="cls-4" d="M488,428.68c1.17,0,1.54-1.53.16-1.53-1.17,0-1.54,1.53-.16,1.53Z"/><path class="cls-4" d="M496.34,467.58c.42,0,1.15-.12,1.33-.59s-.14-.71-.58-.71-1.16.12-1.33.58.14.72.58.72Z"/><path class="cls-4" d="M491.71,291.76a2.32,2.32,0,0,0,1.44-.39c.19-.21.39-.4-.11-.4a2.32,2.32,0,0,0-1.44.38c-.19.22-.38.41.11.41Z"/><path class="cls-4" d="M491.71,252.73a2.4,2.4,0,0,0,1.43-.38c.21-.22.39-.38-.1-.38a2.44,2.44,0,0,0-1.43.38c-.2.22-.39.38.1.38Z"/><path class="cls-4" d="M500.66,272.47c.4,0,1.17-.12,1.34-.57s-.14-.66-.57-.66-1.17.13-1.33.57.13.66.56.66Z"/><path class="cls-4" d="M461.94,268.25c1.14,0,1.57-1.45.19-1.45-1.15,0-1.57,1.45-.19,1.45Z"/><path class="cls-4" d="M535.65,62.41c1.19,0,1.52-1.59.15-1.59-1.19,0-1.52,1.59-.15,1.59Z"/><path class="cls-4" d="M533.14,70.77c.65,0,2.19-1,.84-1-.65,0-2.19,1-.84,1Z"/><path class="cls-4" d="M546.16,64.34c.37,0,1.19-.14,1.34-.55s-.13-.56-.54-.56-1.18.13-1.34.54.13.57.54.57Z"/><path class="cls-4" d="M505,64.29c.68,0,2.18-1,.82-1-.68,0-2.18,1-.82,1Z"/><path class="cls-4" d="M381.46,55.75c.41,0,1.15-.13,1.33-.58s-.14-.69-.58-.69-1.15.12-1.33.58.14.69.58.69Z"/><path class="cls-4" d="M389.85,42.53a2.23,2.23,0,0,0,1.43-.39c.22-.22.37-.45-.12-.45a2.23,2.23,0,0,0-1.43.38c-.21.22-.37.46.12.46Z"/><path class="cls-4" d="M400.93,60c.66,0,2.18-1,.83-1-.67,0-2.19,1-.83,1Z"/><path class="cls-4" d="M366.28,36.21c.39,0,1.17-.13,1.33-.57s-.13-.64-.56-.64-1.17.13-1.33.57.13.64.56.64Z"/><path class="cls-4" d="M370.91,162.08c1.18,0,1.55-1.53.17-1.53-1.17,0-1.54,1.53-.17,1.53Z"/><path class="cls-4" d="M370.57,183.44c.6,0,2.2-.89.86-.89-.6,0-2.2.89-.86.89Z"/><path class="cls-4" d="M383.34,170.38a2.32,2.32,0,0,0,1.44-.38c.19-.22.38-.41-.11-.41a2.32,2.32,0,0,0-1.44.39c-.19.22-.39.4.11.4Z"/><path class="cls-4" d="M348.92,170.51c.69,0,2.17-1,.81-1-.69,0-2.17,1-.81,1Z"/><path class="cls-4" d="M1371.94,255c.61,0,2.2-.91.85-.91-.61,0-2.2.91-.85.91Z"/><path class="cls-4" d="M1374.14,281.12c.39,0,1.18-.13,1.34-.56s-.14-.63-.56-.63-1.17.14-1.34.57.14.62.56.62Z"/><path class="cls-4" d="M1386.87,267.91a2.33,2.33,0,0,0,1.43-.38c.2-.22.39-.4-.1-.4a2.28,2.28,0,0,0-1.43.39c-.2.22-.39.39.1.39Z"/><path class="cls-4" d="M1361.42,268.22c1.13,0,1.59-1.39.21-1.39-1.12,0-1.59,1.39-.21,1.39Z"/><path class="cls-4" d="M1512.84,144.51c.36,0,1.19-.14,1.35-.53s-.13-.54-.54-.54-1.19.14-1.34.54.13.53.53.53Z"/><path class="cls-4" d="M1512.82,163.93c.6,0,2.2-.89.86-.89-.61,0-2.21.89-.86.89Z"/><path class="cls-4" d="M1523.43,155.22a2.23,2.23,0,0,0,1.43-.38c.19-.22.39-.43-.12-.43a2.23,2.23,0,0,0-1.43.38c-.19.22-.39.43.12.43Z"/><path class="cls-4" d="M745.6,55.78c.43,0,1.15-.12,1.33-.59s-.14-.75-.59-.75-1.15.12-1.33.59.14.75.59.75Z"/><path class="cls-4" d="M747.76,73.09c.41,0,1.15-.13,1.33-.58s-.14-.69-.58-.69-1.15.12-1.33.57.14.7.58.7Z"/><path class="cls-4" d="M752.39,60.23c1.19,0,1.53-1.57.16-1.57-1.19,0-1.53,1.57-.16,1.57Z"/><path class="cls-4" d="M84.2,931.41c.73,0,2.16-1.1.8-1.1-.73,0-2.17,1.1-.8,1.1Z"/><path class="cls-4" d="M154.36,940.11c.41,0,1.15-.12,1.33-.58s-.14-.7-.58-.7-1.16.13-1.33.58.14.7.58.7Z"/><path class="cls-4" d="M558.89,795.9a2.27,2.27,0,0,0,1.43-.38c.2-.22.39-.4-.1-.4a2.32,2.32,0,0,0-1.44.38c-.2.22-.39.4.11.4Z"/><path class="cls-4" d="M567.76,776.34c.68,0,2.17-1,.82-1-.69,0-2.18,1-.82,1Z"/><path class="cls-4" d="M568.74,797.17a2.25,2.25,0,0,0,1.44-.38c.21-.23.36-.48-.13-.48a2.16,2.16,0,0,0-1.43.39c-.21.22-.37.47.12.47Z"/><path class="cls-4" d="M588.7,745.7c.42,0,1.16-.13,1.34-.58s-.14-.69-.58-.69-1.15.12-1.33.58.14.69.57.69Z"/><path class="cls-4" d="M581.32,713.69c.4,0,1.17-.12,1.33-.57s-.13-.67-.57-.67-1.17.13-1.33.57.13.67.57.67Z"/><path class="cls-4" d="M592.37,724.67c.35,0,1.19-.14,1.34-.53s-.13-.52-.53-.52-1.19.14-1.34.53.13.52.53.52Z"/><path class="cls-4" d="M577.64,726c.41,0,1.15-.13,1.33-.59s-.14-.72-.59-.72-1.15.13-1.33.59.14.72.59.72Z"/><path class="cls-4" d="M857.6,54.59c.39,0,1.17-.13,1.34-.56s-.14-.62-.56-.62-1.18.13-1.34.56.13.62.56.62Z"/><path class="cls-4" d="M865.52,75.74c.43,0,1.15-.12,1.33-.6s-.14-.75-.6-.75-1.15.12-1.32.59a.56.56,0,0,0,.59.76Z"/><path class="cls-4" d="M1776.37,51.9c.35,0,1.19-.14,1.34-.54s-.12-.52-.53-.52-1.19.14-1.34.53.13.53.53.53Z"/><path class="cls-4" d="M378.19,338.72a2.29,2.29,0,0,0,1.43-.39c.2-.22.39-.4-.11-.4a2.31,2.31,0,0,0-1.43.39c-.2.22-.39.4.11.4Z"/><path class="cls-4" d="M386.08,354.5a2.38,2.38,0,0,0,1.44-.38c.2-.22.39-.38-.1-.38a2.38,2.38,0,0,0-1.44.38c-.2.22-.39.38.1.38Z"/><path class="cls-4" d="M407.41,344.13c.36,0,1.18-.14,1.34-.54s-.13-.54-.54-.54-1.18.14-1.34.54.13.54.54.54Z"/><path class="cls-4" d="M265.26,202c.38,0,1.17-.13,1.33-.56s-.13-.61-.55-.61-1.18.14-1.34.56.13.61.56.61Z"/><path class="cls-4" d="M270.25,215a2.33,2.33,0,0,0,1.43-.38c.2-.22.39-.4-.1-.4a2.38,2.38,0,0,0-1.44.38c-.19.22-.39.4.11.4Z"/><path class="cls-4" d="M273.45,210.05c1.15,0,1.57-1.45.19-1.45-1.14,0-1.57,1.45-.19,1.45Z"/><path class="cls-4" d="M294.23,131c.4,0,1.16-.13,1.33-.58s-.13-.68-.57-.68-1.17.12-1.34.57.14.69.58.69Z"/><path class="cls-4" d="M315,130.74a2.3,2.3,0,0,0,1.43-.38c.2-.22.39-.41-.11-.41a2.27,2.27,0,0,0-1.43.38c-.2.22-.39.41.11.41Z"/><path class="cls-4" d="M312.61,115c.61,0,2.2-.92.85-.92-.61,0-2.2.92-.85.92Z"/></g><g id="Moon_Sun" data-name="Moon &amp; Sun"><circle class="cls-4" cx="1017.64" cy="258.08" r="114.91"/></g><g id="Mountain_back" data-name="Mountain back"><path class="cls-5" d="M682.41,861.57S711,729.85,770.29,715.1s68.4,41.34,98.65,27c62.36-29.48,70.47-278.8,162.09-278.8s70.49,135,100.13,150.94c73.48,39.41,29.33,112.23,73.23,127s26.33,34.6,46.09,68.83,79,51.48,79,51.48Z"/></g><g id="Text"><text class="cls-6" transform="translate(655.02 631.46)">SEA &amp; <tspan class="cls-7" x="411.25" y="0">S</tspan><tspan class="cls-8" x="488.67" y="0">A</tspan><tspan class="cls-9" x="588.75" y="0">L</tspan><tspan x="655.09" y="0">T</tspan></text></g><g id="Waves_Mountains" data-name="Waves &amp; Mountains"><path class="cls-10" d="M1742.77,1039.49c-61.16,0-61.16-34-122.32-34s-61.17,34-122.33,34-61.17-34-122.33-34-61.17,34-122.33,34-61.17-34-122.33-34-61.17,34-122.33,34-61.17-34-122.33-34-61.17,34-122.33,34-61.17-34-122.33-34-61.16,34-122.33,34-61.16-34-122.33-34-61.16,34-122.33,34-61.16-34-122.33-34-61.17,34-122.33,34-61.17-34-122.33-34-61.17,34-122.34,34-59.73-27.52-120.56-33.92c-10.46-1.11-1.69-3.09,7.29-8.59s26.74,23.51,35.71,18-8.79-34.51.19-40,26.74,23.51,35.71,18-8.79-34.51.18-40,26.74,23.51,35.72,18-8.79-34.5.18-40,26.74,23.51,35.72,18-8.79-34.5.18-40,26.74,23.51,35.72,18-8.79-34.51.18-40,26.75,23.51,35.72,18-8.79-34.51.18-40,26.75,23.5,35.72,18-8.78-34.51.19-40,26.75,23.51,35.73,18S-43.5,819.43-33,818.61c61-4.78,62.52,34,123.71,34s61.2-34,122.39-34,61.19,34,122.38,34,61.19-34,122.39-34,61.19,34,122.38,34,61.19-34,122.39-34,61.19,34,122.38,34,61.2-34,122.39-34,61.19,34,122.38,34,61.19-34,122.38-34,61.2,34,122.39,34,61.19-34,122.39-34,61.19,34,122.38,34,61.2-34,122.39-34,61.19,34,122.39,34,61.19-34,122.39-34,61.2,34,122.39,34"/><path class="cls-11" d="M2047.94,1101.8c-61.16,0-61.16-34-122.32-34s-61.17,34-122.33,34-61.17-34-122.33-34-61.16,34-122.33,34-61.16-34-122.33-34-61.16,34-122.33,34-61.16-34-122.33-34-61.16,34-122.33,34-61.16-34-122.33-34-61.16,34-122.33,34-61.16-34-122.33-34-61.16,34-122.33,34-61.16-34-122.33-34-61.16,34-122.33,34-61.17-34-122.33-34-61.17,34-122.34,34-59.89-28.47-120.82-33.94c-5.47-.49-18.53,11.44-18.53,5.94s34-5.49,34-11-34-5.49-34-11,34-5.49,34-11-34-5.5-34-11,34-5.5,34-11-34-5.49-34-11,34-5.5,34-11-34-5.49-34-11,34-5.5,34-11-34-5.49-34-11,34-5.49,34-11-34-5.5-34-11,34-5.5,34-11-34-5.49-34-11,34-5.5,34-11-24-27.45-18.53-27.95c60.94-5.48,62.71,33.95,123.9,33.95s61.2-34,122.39-34,61.19,34,122.38,34,61.19-34,122.39-34,61.19,34,122.38,34,61.19-34,122.39-34,61.19,34,122.38,34,61.2-34,122.39-34,61.19,34,122.38,34,61.19-34,122.38-34,61.2,34,122.39,34,61.19-34,122.39-34,61.19,34,122.38,34,61.2-34,122.39-34,61.19,34,122.39,34,61.19-34,122.39-34,61.2,34,122.39,34"/><path class="cls-12" d="M2047.94,1168.41c-61.16,0-61.16-34-122.32-34s-61.17,34-122.33,34-61.17-34-122.33-34-61.16,34-122.33,34-61.16-34-122.33-34-61.16,34-122.33,34-61.16-34-122.33-34-61.16,34-122.33,34-61.16-34-122.33-34-61.16,34-122.33,34-61.16-34-122.33-34-61.16,34-122.33,34-61.16-34-122.33-34-61.16,34-122.33,34-61.17-34-122.33-34-61.17,34-122.34,34-59.89-28.48-120.82-34c-5.47-.49-18.53,11.44-18.53,6s34-5.5,34-11-34-5.5-34-11,34-5.5,34-11-34-5.5-34-11,34-5.5,34-11-34-5.5-34-11,34-5.5,34-11-34-5.5-34-11,34-5.5,34-11-34-5.5-34-11,34-5.49,34-11-34-5.5-34-11,34-5.5,34-11-34-5.5-34-11,34-5.5,34-11-24-27.45-18.53-27.94c60.94-5.48,62.71,33.94,123.9,33.94s61.2-34,122.39-34,61.19,34,122.38,34,61.19-34,122.39-34,61.19,34,122.38,34,61.19-34,122.39-34,61.19,34,122.38,34,61.2-34,122.39-34,61.19,34,122.38,34,61.19-34,122.38-34,61.2,34,122.39,34,61.19-34,122.39-34,61.19,34,122.38,34,61.2-34,122.39-34,61.19,34,122.39,34,61.19-34,122.39-34,61.2,34,122.39,34"/><path class="cls-13" d="M1042,1061.37s120.86-226.09,133.75-250,90-189.32,158.74-197.45c70.83-9.41,66,32.11,108,19.79,80.25-65.44,106.47-232.16,141-280.5s58-25.57,94.53-55.94c29.44-32.16,47.11-138.53,121.71-153.38S1917.56,361,1935.14,403.6s28.88,29.12,53,34.64,60.74,63.59,60.74,63.59v559.54Z"/><path class="cls-14" d="M946.22,1061.37s46.87-189.91,166.5-204.71,145.85,27.69,212.84,1.05,131.55-119.28,167.1-142.27,90,9.3,121.93-28.46S1657,513.41,1761.36,513.41,1877.29,660,1890.72,687.62c16.79,32.34,53.25,35.08,71.88,61.1s2.82,57.33,44.55,76.45,41.73,35.39,41.73,35.39v200.81Z"/><path class="cls-4" d="M1168.56,1059.94s19.76-37.36,60.52-51.37,62.61,35.91,100.05,9.34,41.56-108.82,105-138.53,91.76,56.89,144.51,37.36,71.6-161.48,174.16-171.22,145.6,189.63,153.15,213.24,41,40.36,66.7,49.81,30.88,51.37,30.88,51.37Z"/><path class="cls-15" d="M2047.94,1237.69c-61.16,0-61.16-34-122.32-34s-61.17,34-122.33,34-61.17-34-122.33-34-61.16,34-122.33,34-61.16-34-122.33-34-61.16,34-122.33,34-61.16-34-122.33-34-61.16,34-122.33,34-61.16-34-122.33-34-61.16,34-122.33,34-61.16-34-122.33-34-61.16,34-122.33,34-61.16-34-122.33-34-61.16,34-122.33,34-61.17-34-122.33-34-61.17,34-122.34,34-59.89-28.47-120.82-33.94c-5.47-.5-18.53,11.44-18.53,5.94s34-5.49,34-11-34-5.49-34-11,34-5.5,34-11-34-5.5-34-11,34-5.49,34-11-34-5.49-34-11,34-5.5,34-11-34-5.49-34-11,34-5.5,34-11-34-5.49-34-11,34-5.5,34-11-34-5.5-34-11,34-5.5,34-11-34-5.49-34-11,34-5.5,34-11-24-27.45-18.53-27.95c60.94-5.48,62.71,33.95,123.9,33.95s61.2-34,122.39-34,61.19,34,122.38,34,61.19-34,122.39-34,61.19,34,122.38,34,61.19-34,122.39-34,61.19,34,122.38,34,61.2-34,122.39-34,61.19,34,122.38,34,61.19-34,122.38-34,61.2,34,122.39,34,61.19-34,122.39-34,61.19,34,122.38,34,61.2-34,122.39-34,61.19,34,122.39,34,61.19-34,122.39-34,61.2,34,122.39,34"/><path class="cls-16" d="M2047.94,1302.46c-61.16,0-61.16-34-122.32-34s-61.17,34-122.33,34-61.17-34-122.33-34-61.16,34-122.33,34-61.16-34-122.33-34-61.16,34-122.33,34-61.16-34-122.33-34-61.16,34-122.33,34-61.16-34-122.33-34-61.16,34-122.33,34-61.16-34-122.33-34-61.16,34-122.33,34-61.16-34-122.33-34-61.16,34-122.33,34-61.17-34-122.33-34-61.17,34-122.34,34S30.77,1274-30.16,1268.52c-5.47-.49-18.53,11.44-18.53,5.94s34-5.49,34-11-34-5.5-34-11,34-5.49,34-11-34-5.5-34-11,34-5.5,34-11-34-5.49-34-11,34-5.5,34-11-34-5.49-34-11,34-5.5,34-11-34-5.49-34-11,34-5.49,34-11-34-5.5-34-11,34-5.5,34-11-34-5.49-34-11,34-5.5,34-11-24-27.45-18.53-28c60.94-5.48,62.71,34,123.9,34s61.2-34,122.39-34,61.19,34,122.38,34,61.19-34,122.39-34,61.19,34,122.38,34,61.19-34,122.39-34,61.19,34,122.38,34,61.2-34,122.39-34,61.19,34,122.38,34,61.19-34,122.38-34,61.2,34,122.39,34,61.19-34,122.39-34,61.19,34,122.38,34,61.2-34,122.39-34,61.19,34,122.39,34,61.19-34,122.39-34,61.2,34,122.39,34"/></g><g id="Flower"><path class="cls-17" d="M76.9,862.57s-4.61-55,11.11-90.15,33.12-51.87,33.12-51.87,1,17.12-.89,51.94-25.4,91.4-25.4,91.4Z"/><path class="cls-18" d="M119.43,724.1S96.62,768,85.57,863.21"/><line class="cls-18" x1="106.22" y1="759.34" x2="121.17" y2="749.46"/><line class="cls-18" x1="100.71" y1="779.02" x2="120.46" y2="768.32"/><line class="cls-18" x1="95.09" y1="803.38" x2="117.71" y2="791.37"/><line class="cls-18" x1="91.28" y1="823.45" x2="112.66" y2="812.29"/><line class="cls-18" x1="92.81" y1="814.95" x2="81.42" y2="792.59"/><line class="cls-18" x1="98.2" y1="789.29" x2="88.01" y2="772.42"/><line class="cls-18" x1="103.5" y1="768.62" x2="96.23" y2="755.8"/><line class="cls-18" x1="109.86" y1="748.07" x2="106.55" y2="738.85"/><line class="cls-18" x1="88.93" y1="837.97" x2="77.43" y2="817.99"/><line class="cls-18" x1="87.5" y1="847.96" x2="105.23" y2="836.06"/><path class="cls-17" d="M91.2,866.25s9.2-39.89,28.25-61.15S154.59,776,154.59,776s-3.19,12.3-12.38,36.48-38.64,58.8-38.64,58.8Z"/><path class="cls-18" d="M152.58,778.08S126.53,804,97.18,868.67"/><line class="cls-18" x1="135.28" y1="799.99" x2="148.08" y2="796.39"/><line class="cls-18" x1="126.93" y1="812.64" x2="143.3" y2="809.55"/><line class="cls-18" x1="117.45" y1="828.57" x2="136.15" y2="825.21"/><line class="cls-18" x1="110.21" y1="841.88" x2="127.84" y2="838.84"/><line class="cls-18" x1="113.22" y1="836.23" x2="110.24" y2="817.86"/><line class="cls-18" x1="122.83" y1="819.32" x2="119.45" y2="805.1"/><line class="cls-18" x1="131.26" y1="805.93" x2="129.03" y2="795.22"/><line class="cls-18" x1="140.4" y1="792.85" x2="140.15" y2="785.58"/><line class="cls-18" x1="105.27" y1="851.6" x2="101.67" y2="834.89"/><line class="cls-18" x1="101.99" y1="858.33" x2="117.21" y2="853.94"/><path class="cls-17" d="M63.33,865.87s-19.18-36.16-18.71-64.71,7.46-45,7.46-45,5.66,11.39,14.54,35.68S76,861.54,76,861.54Z"/><path class="cls-18" d="M52,759.05s-2.75,36.61,17.47,104.73"/><line class="cls-18" x1="53.22" y1="786.93" x2="60.54" y2="775.83"/><line class="cls-18" x1="55.21" y1="801.95" x2="65.55" y2="788.9"/><line class="cls-18" x1="58.48" y1="820.21" x2="70.4" y2="805.42"/><line class="cls-18" x1="61.73" y1="835" x2="73.05" y2="821.16"/><line class="cls-18" x1="60.3" y1="828.76" x2="46.01" y2="816.84"/><line class="cls-18" x1="56.49" y1="809.69" x2="44.62" y2="801.16"/><line class="cls-18" x1="54.08" y1="794.05" x2="45.38" y2="787.43"/><line class="cls-18" x1="52.42" y1="778.18" x2="47.47" y2="772.86"/><line class="cls-18" x1="64.36" y1="845.59" x2="50.7" y2="835.32"/><line class="cls-18" x1="66.3" y1="852.82" x2="74.92" y2="839.53"/></g><g id="Flower_sec" data-name="Flower sec"><path class="cls-17" d="M535,1076.11s15.75-44.39,10.4-76.8-16.08-50-16.08-50-4.51,13.92-10.54,43.06,1.13,80.94,1.13,80.94Z"/><path class="cls-18" d="M530,952.61s9.29,41.21-2.26,122.15"/><line class="cls-18" x1="533.21" y1="984.56" x2="523.01" y2="973.16"/><line class="cls-18" x1="533.48" y1="1001.99" x2="519.51" y2="988.88"/><line class="cls-18" x1="532.83" y1="1023.32" x2="516.77" y2="1008.49"/><line class="cls-18" x1="531.62" y1="1040.71" x2="516.41" y2="1026.86"/><line class="cls-18" x1="532.2" y1="1033.36" x2="546.46" y2="1017.39"/><line class="cls-18" x1="533.33" y1="1011.01" x2="545.4" y2="999.31"/><line class="cls-18" x1="533.44" y1="992.81" x2="542.22" y2="983.81"/><line class="cls-18" x1="532.65" y1="974.47" x2="537.39" y2="967.58"/><line class="cls-18" x1="530.41" y1="1053.2" x2="544.24" y2="1039.21"/><line class="cls-18" x1="529.43" y1="1061.75" x2="517.38" y2="1048.08"/><path class="cls-17" d="M522.4,1076.05s1.07-34.92-10-56.6-22.67-31.67-22.67-31.67-.05,10.85,2.3,32.79,19.11,56.92,19.11,56.92Z"/><path class="cls-18" d="M490.88,990s15.89,27,26.06,86.78"/><line class="cls-18" x1="500.41" y1="1011.8" x2="490.63" y2="1006.05"/><line class="cls-18" x1="504.55" y1="1024.04" x2="491.71" y2="1017.95"/><line class="cls-18" x1="508.92" y1="1039.25" x2="494.22" y2="1032.42"/><line class="cls-18" x1="512" y1="1051.81" x2="498.11" y2="1045.47"/><line class="cls-18" x1="510.74" y1="1046.49" x2="517.19" y2="1031.98"/><line class="cls-18" x1="506.48" y1="1030.45" x2="512.36" y2="1019.45"/><line class="cls-18" x1="502.44" y1="1017.57" x2="506.6" y2="1009.22"/><line class="cls-18" x1="497.73" y1="1004.79" x2="499.51" y2="998.85"/><line class="cls-18" x1="513.97" y1="1060.9" x2="520.57" y2="1047.9"/><line class="cls-18" x1="515.21" y1="1067.17" x2="503.6" y2="1060.24"/><path class="cls-17" d="M545.48,1081.79s23.68-25.69,29.49-49.35,3.61-38.78,3.61-38.78-7.14,8.17-19.74,26.29S536,1075.47,536,1075.47Z"/><path class="cls-18" d="M578.05,996.1s-5.68,30.81-37.15,82.63"/><line class="cls-18" x1="570.95" y1="1018.83" x2="567.33" y2="1008.09"/><line class="cls-18" x1="566.06" y1="1030.8" x2="560.35" y2="1017.78"/><line class="cls-18" x1="559.39" y1="1045.15" x2="552.77" y2="1030.36"/><line class="cls-18" x1="553.5" y1="1056.66" x2="547.16" y2="1042.77"/><line class="cls-18" x1="556.04" y1="1051.82" x2="570.42" y2="1045.08"/><line class="cls-18" x1="563.32" y1="1036.91" x2="574.97" y2="1032.44"/><line class="cls-18" x1="568.7" y1="1024.53" x2="577.32" y2="1020.95"/><line class="cls-18" x1="573.52" y1="1011.79" x2="578.76" y2="1008.47"/><line class="cls-18" x1="549.03" y1="1064.82" x2="562.54" y2="1059.32"/><line class="cls-18" x1="545.86" y1="1070.37" x2="541.63" y2="1057.53"/></g><g id="Mountain_Front" data-name="Mountain Front"><path class="cls-19" d="M0,847.69v303.86H601.27s-25.15-77-99-82.87-74.09,2.51-119.29-20.09-73-105.69-188.24-155S0,847.69,0,847.69Z"/></g><g id="FishOne"><path class="cls-20" d="M683.9,951.13c21.64,19.41,43.28,19.41,43.28,19.41V931.72S705.54,931.72,683.9,951.13Z"/><path class="cls-21" d="M685.53,950.86c20.2-17.7,40.41-17.7,40.41-17.7v17.7Z"/><path class="cls-22" d="M811.87,951.13h0S773,924.59,731,931.15v40c42,6.56,80.85-20,80.88-20Z"/><path class="cls-22" d="M813,951.13s16.91,10.68,21.59,18.23V932.9C829.87,940.45,813,951.13,813,951.13Z"/><path class="cls-20" d="M799.24,897.15c18.34,16.45,36.69,16.45,36.69,16.45V880.69S817.58,880.69,799.24,897.15Z"/><path class="cls-21" d="M800.62,896.92c17.13-15,34.26-15,34.26-15v15Z"/><path class="cls-22" d="M908.23,897.14h0s-33-22.49-68.56-16.93v33.87c35.59,5.56,68.54-16.92,68.56-16.93h0Z"/><path class="cls-22" d="M909.15,897.15s14.34,9,18.31,15.45V881.69C923.49,888.1,909.15,897.15,909.15,897.15Z"/><path class="cls-20" d="M859.24,964.83c14.3,12.83,28.6,12.83,28.6,12.83V952S873.54,952,859.24,964.83Z"/><path class="cls-21" d="M860.32,964.66C873.67,953,887,953,887,953v11.7Z"/><path class="cls-22" d="M944.34,964.83h0s-25.69-17.53-53.43-13.2V978c27.74,4.33,53.41-13.19,53.43-13.21Z"/><path class="cls-22" d="M945.06,964.83s11.18,7.06,14.27,12V952.79C956.24,957.78,945.06,964.83,945.06,964.83Z"/></g><g id="clouds"><path class="cls-23" d="M1189.62,217.68h260.5c-36.75-15.09-43.89-38.85-63.37-38.85s-24.93,12.94-36.58,14.19-17.82-9-27.68-7.68-15.59,7.86-22.45,10.37-10.3-4.31-19.89-3.39-10.68,7.26-17,9-7.46-3.32-18.26-3.32S1237.61,206,1189.62,217.68Z"/><path class="cls-23" d="M1320.06,398.54H1122.93c27.82-11.41,33.22-29.4,48-29.4s18.86,9.79,27.68,10.74,13.49-6.83,20.94-5.81,11.81,5.95,17,7.85,7.8-3.26,15.06-2.57,8.08,5.49,12.87,6.79,5.65-2.51,13.82-2.51S1283.75,389.74,1320.06,398.54Z"/><path class="cls-23" d="M852.86,283.11s-26-2.52-45.51-11.81S784,256.39,769.73,255.14s-23.09,13.2-38.06,10.1-36.68-27-68.37-24.09-50.55,30.21-57.87,32.48-12.09-1.56-21.5-.85-19.18,8.92-34.15,10.33Z"/></g></svg>