<svg xmlns="http://www.w3.org/2000/svg" viewBox="0 0 2048.88 1152"><defs><style>.cls-1{fill:#afafaf;}.cls-2{fill:#878787;}.cls-3{fill:#5b5b5b;}.cls-4{fill:#4c4c4c;}.cls-5{fill:#999;}.cls-6{fill:#e0e0e0;}.cls-7{fill:#333;}.cls-8{fill:#1d1d1b;}.cls-11,.cls-9{fill:#232323;}.cls-9{stroke:#232323;stroke-width:2px;}.cls-10,.cls-9{stroke-linecap:round;stroke-linejoin:round;}.cls-10{fill:none;stroke:#878787;}</style></defs><g id="Waves_Mountains" data-name="Waves &amp; Mountains"><path class="cls-1" d="M1742.77,1039.49c-61.16,0-61.16-34-122.32-34s-61.17,34-122.33,34-61.17-34-122.33-34-61.17,34-122.33,34-61.17-34-122.33-34-61.17,34-122.33,34-61.17-34-122.33-34-61.17,34-122.33,34-61.17-34-122.33-34-61.16,34-122.33,34-61.16-34-122.33-34-61.16,34-122.33,34-61.16-34-122.33-34-61.17,34-122.33,34-61.17-34-122.33-34-61.17,34-122.34,34-59.73-27.52-120.56-33.92c-10.46-1.11-1.69-3.09,7.29-8.59s26.74,23.51,35.71,18-8.79-34.51.19-40,26.74,23.51,35.71,18-8.79-34.51.18-40,26.74,23.51,35.72,18-8.79-34.5.18-40,26.74,23.51,35.72,18-8.79-34.5.18-40,26.74,23.51,35.72,18-8.79-34.51.18-40,26.75,23.51,35.72,18-8.79-34.51.18-40,26.75,23.5,35.72,18-8.78-34.51.19-40,26.75,23.51,35.73,18S-43.5,819.43-33,818.61c61-4.78,62.52,34,123.71,34s61.2-34,122.39-34,61.19,34,122.38,34,61.19-34,122.39-34,61.19,34,122.38,34,61.19-34,122.39-34,61.19,34,122.38,34,61.2-34,122.39-34,61.19,34,122.38,34,61.19-34,122.38-34,61.2,34,122.39,34,61.19-34,122.39-34,61.19,34,122.38,34,61.2-34,122.39-34,61.19,34,122.39,34,61.19-34,122.39-34,61.2,34,122.39,34"/><path class="cls-2" d="M2047.94,1101.8c-61.16,0-61.16-34-122.32-34s-61.17,34-122.33,34-61.17-34-122.33-34-61.16,34-122.33,34-61.16-34-122.33-34-61.16,34-122.33,34-61.16-34-122.33-34-61.16,34-122.33,34-61.16-34-122.33-34-61.16,34-122.33,34-61.16-34-122.33-34-61.16,34-122.33,34-61.16-34-122.33-34-61.16,34-122.33,34-61.17-34-122.33-34-61.17,34-122.34,34-59.89-28.47-120.82-33.94c-5.47-.49-18.53,11.44-18.53,5.94s34-5.49,34-11-34-5.49-34-11,34-5.49,34-11-34-5.5-34-11,34-5.5,34-11-34-5.49-34-11,34-5.5,34-11-34-5.49-34-11,34-5.5,34-11-34-5.49-34-11,34-5.49,34-11-34-5.5-34-11,34-5.5,34-11-34-5.49-34-11,34-5.5,34-11-24-27.45-18.53-27.95c60.94-5.48,62.71,33.95,123.9,33.95s61.2-34,122.39-34,61.19,34,122.38,34,61.19-34,122.39-34,61.19,34,122.38,34,61.19-34,122.39-34,61.19,34,122.38,34,61.2-34,122.39-34,61.19,34,122.38,34,61.19-34,122.38-34,61.2,34,122.39,34,61.19-34,122.39-34,61.19,34,122.38,34,61.2-34,122.39-34,61.19,34,122.39,34,61.19-34,122.39-34,61.2,34,122.39,34"/><path class="cls-3" d="M2047.94,1168.41c-61.16,0-61.16-34-122.32-34s-61.17,34-122.33,34-61.17-34-122.33-34-61.16,34-122.33,34-61.16-34-122.33-34-61.16,34-122.33,34-61.16-34-122.33-34-61.16,34-122.33,34-61.16-34-122.33-34-61.16,34-122.33,34-61.16-34-122.33-34-61.16,34-122.33,34-61.16-34-122.33-34-61.16,34-122.33,34-61.17-34-122.33-34-61.17,34-122.34,34-59.89-28.48-120.82-34c-5.47-.49-18.53,11.44-18.53,6s34-5.5,34-11-34-5.5-34-11,34-5.5,34-11-34-5.5-34-11,34-5.5,34-11-34-5.5-34-11,34-5.5,34-11-34-5.5-34-11,34-5.5,34-11-34-5.5-34-11,34-5.49,34-11-34-5.5-34-11,34-5.5,34-11-34-5.5-34-11,34-5.5,34-11-24-27.45-18.53-27.94c60.94-5.48,62.71,33.94,123.9,33.94s61.2-34,122.39-34,61.19,34,122.38,34,61.19-34,122.39-34,61.19,34,122.38,34,61.19-34,122.39-34,61.19,34,122.38,34,61.2-34,122.39-34,61.19,34,122.38,34,61.19-34,122.38-34,61.2,34,122.39,34,61.19-34,122.39-34,61.19,34,122.38,34,61.2-34,122.39-34,61.19,34,122.39,34,61.19-34,122.39-34,61.2,34,122.39,34"/><path class="cls-4" d="M1042,1061.37s120.86-226.09,133.75-250,90-189.32,158.74-197.45c70.83-9.41,66,32.11,108,19.79,80.25-65.44,106.47-232.16,141-280.5s58-25.57,94.53-55.94c29.44-32.16,47.11-138.53,121.71-153.38S1917.56,361,1935.14,403.6s28.88,29.12,53,34.64,60.74,63.59,60.74,63.59v559.54Z"/><path class="cls-5" d="M946.22,1061.37s46.87-189.91,166.5-204.71,145.85,27.69,212.84,1.05,131.55-119.28,167.1-142.27,90,9.3,121.93-28.46S1657,513.41,1761.36,513.41,1877.29,660,1890.72,687.62c16.79,32.34,53.25,35.08,71.88,61.1s2.82,57.33,44.55,76.45,41.73,35.39,41.73,35.39v200.81Z"/><path class="cls-6" d="M1168.56,1059.94s19.76-37.36,60.52-51.37,62.61,35.91,100.05,9.34,41.56-108.82,105-138.53,91.76,56.89,144.51,37.36,71.6-161.48,174.16-171.22,145.6,189.63,153.15,213.24,41,40.36,66.7,49.81,30.88,51.37,30.88,51.37Z"/><path class="cls-7" d="M2047.94,1237.69c-61.16,0-61.16-34-122.32-34s-61.17,34-122.33,34-61.17-34-122.33-34-61.16,34-122.33,34-61.16-34-122.33-34-61.16,34-122.33,34-61.16-34-122.33-34-61.16,34-122.33,34-61.16-34-122.33-34-61.16,34-122.33,34-61.16-34-122.33-34-61.16,34-122.33,34-61.16-34-122.33-34-61.16,34-122.33,34-61.17-34-122.33-34-61.17,34-122.34,34-59.89-28.47-120.82-33.94c-5.47-.5-18.53,11.44-18.53,5.94s34-5.49,34-11-34-5.49-34-11,34-5.5,34-11-34-5.5-34-11,34-5.49,34-11-34-5.49-34-11,34-5.5,34-11-34-5.49-34-11,34-5.5,34-11-34-5.49-34-11,34-5.5,34-11-34-5.5-34-11,34-5.5,34-11-34-5.49-34-11,34-5.5,34-11-24-27.45-18.53-27.95c60.94-5.48,62.71,33.95,123.9,33.95s61.2-34,122.39-34,61.19,34,122.38,34,61.19-34,122.39-34,61.19,34,122.38,34,61.19-34,122.39-34,61.19,34,122.38,34,61.2-34,122.39-34,61.19,34,122.38,34,61.19-34,122.38-34,61.2,34,122.39,34,61.19-34,122.39-34,61.19,34,122.38,34,61.2-34,122.39-34,61.19,34,122.39,34,61.19-34,122.39-34,61.2,34,122.39,34"/><path class="cls-8" d="M2047.94,1302.46c-61.16,0-61.16-34-122.32-34s-61.17,34-122.33,34-61.17-34-122.33-34-61.16,34-122.33,34-61.16-34-122.33-34-61.16,34-122.33,34-61.16-34-122.33-34-61.16,34-122.33,34-61.16-34-122.33-34-61.16,34-122.33,34-61.16-34-122.33-34-61.16,34-122.33,34-61.16-34-122.33-34-61.16,34-122.33,34-61.17-34-122.33-34-61.17,34-122.34,34S30.77,1274-30.16,1268.52c-5.47-.49-18.53,11.44-18.53,5.94s34-5.49,34-11-34-5.5-34-11,34-5.49,34-11-34-5.5-34-11,34-5.5,34-11-34-5.49-34-11,34-5.5,34-11-34-5.49-34-11,34-5.5,34-11-34-5.49-34-11,34-5.49,34-11-34-5.5-34-11,34-5.5,34-11-34-5.49-34-11,34-5.5,34-11-24-27.45-18.53-28c60.94-5.48,62.71,34,123.9,34s61.2-34,122.39-34,61.19,34,122.38,34,61.19-34,122.39-34,61.19,34,122.38,34,61.19-34,122.39-34,61.19,34,122.38,34,61.2-34,122.39-34,61.19,34,122.38,34,61.19-34,122.38-34,61.2,34,122.39,34,61.19-34,122.39-34,61.19,34,122.38,34,61.2-34,122.39-34,61.19,34,122.39,34,61.19-34,122.39-34,61.2,34,122.39,34"/></g><g id="Flower"><path class="cls-9" d="M76.9,862.57s-4.61-55,11.11-90.15,33.12-51.87,33.12-51.87,1,17.12-.89,51.94-25.4,91.4-25.4,91.4Z"/><path class="cls-10" d="M119.43,724.1S96.62,768,85.57,863.21"/><line class="cls-10" x1="106.22" y1="759.34" x2="121.17" y2="749.46"/><line class="cls-10" x1="100.71" y1="779.02" x2="120.46" y2="768.32"/><line class="cls-10" x1="95.09" y1="803.38" x2="117.71" y2="791.37"/><line class="cls-10" x1="91.28" y1="823.45" x2="112.66" y2="812.29"/><line class="cls-10" x1="92.81" y1="814.95" x2="81.42" y2="792.59"/><line class="cls-10" x1="98.2" y1="789.29" x2="88.01" y2="772.42"/><line class="cls-10" x1="103.5" y1="768.62" x2="96.23" y2="755.8"/><line class="cls-10" x1="109.86" y1="748.07" x2="106.55" y2="738.85"/><line class="cls-10" x1="88.93" y1="837.97" x2="77.43" y2="817.99"/><line class="cls-10" x1="87.5" y1="847.96" x2="105.23" y2="836.06"/><path class="cls-9" d="M91.2,866.25s9.2-39.89,28.25-61.15S154.59,776,154.59,776s-3.19,12.3-12.38,36.48-38.64,58.8-38.64,58.8Z"/><path class="cls-10" d="M152.58,778.08S126.53,804,97.18,868.67"/><line class="cls-10" x1="135.28" y1="799.99" x2="148.08" y2="796.39"/><line class="cls-10" x1="126.93" y1="812.64" x2="143.3" y2="809.55"/><line class="cls-10" x1="117.45" y1="828.57" x2="136.15" y2="825.21"/><line class="cls-10" x1="110.21" y1="841.88" x2="127.84" y2="838.84"/><line class="cls-10" x1="113.22" y1="836.23" x2="110.24" y2="817.86"/><line class="cls-10" x1="122.83" y1="819.32" x2="119.45" y2="805.1"/><line class="cls-10" x1="131.26" y1="805.93" x2="129.03" y2="795.22"/><line class="cls-10" x1="140.4" y1="792.85" x2="140.15" y2="785.58"/><line class="cls-10" x1="105.27" y1="851.6" x2="101.67" y2="834.89"/><line class="cls-10" x1="101.99" y1="858.33" x2="117.21" y2="853.94"/><path class="cls-9" d="M63.33,865.87s-19.18-36.16-18.71-64.71,7.46-45,7.46-45,5.66,11.39,14.54,35.68S76,861.54,76,861.54Z"/><path class="cls-10" d="M52,759.05s-2.75,36.61,17.47,104.73"/><line class="cls-10" x1="53.22" y1="786.93" x2="60.54" y2="775.83"/><line class="cls-10" x1="55.21" y1="801.95" x2="65.55" y2="788.9"/><line class="cls-10" x1="58.48" y1="820.21" x2="70.4" y2="805.42"/><line class="cls-10" x1="61.73" y1="835" x2="73.05" y2="821.16"/><line class="cls-10" x1="60.3" y1="828.76" x2="46.01" y2="816.84"/><line class="cls-10" x1="56.49" y1="809.69" x2="44.62" y2="801.16"/><line class="cls-10" x1="54.08" y1="794.05" x2="45.38" y2="787.43"/><line class="cls-10" x1="52.42" y1="778.18" x2="47.47" y2="772.86"/><line class="cls-10" x1="64.36" y1="845.59" x2="50.7" y2="835.32"/><line class="cls-10" x1="66.3" y1="852.82" x2="74.92" y2="839.53"/></g><g id="Flower_sec" data-name="Flower sec"><path class="cls-9" d="M535,1076.11s15.75-44.39,10.4-76.8-16.08-50-16.08-50-4.51,13.92-10.54,43.06,1.13,80.94,1.13,80.94Z"/><path class="cls-10" d="M530,952.61s9.29,41.21-2.26,122.15"/><line class="cls-10" x1="533.21" y1="984.56" x2="523.01" y2="973.16"/><line class="cls-10" x1="533.48" y1="1001.99" x2="519.51" y2="988.88"/><line class="cls-10" x1="532.83" y1="1023.32" x2="516.77" y2="1008.49"/><line class="cls-10" x1="531.62" y1="1040.71" x2="516.41" y2="1026.86"/><line class="cls-10" x1="532.2" y1="1033.36" x2="546.46" y2="1017.39"/><line class="cls-10" x1="533.33" y1="1011.01" x2="545.4" y2="999.31"/><line class="cls-10" x1="533.44" y1="992.81" x2="542.22" y2="983.81"/><line class="cls-10" x1="532.65" y1="974.47" x2="537.39" y2="967.58"/><line class="cls-10" x1="530.41" y1="1053.2" x2="544.24" y2="1039.21"/><line class="cls-10" x1="529.43" y1="1061.75" x2="517.38" y2="1048.08"/><path class="cls-9" d="M522.4,1076.05s1.07-34.92-10-56.6-22.67-31.67-22.67-31.67-.05,10.85,2.3,32.79,19.11,56.92,19.11,56.92Z"/><path class="cls-10" d="M490.88,990s15.89,27,26.06,86.78"/><line class="cls-10" x1="500.41" y1="1011.8" x2="490.63" y2="1006.05"/><line class="cls-10" x1="504.55" y1="1024.04" x2="491.71" y2="1017.95"/><line class="cls-10" x1="508.92" y1="1039.25" x2="494.22" y2="1032.42"/><line class="cls-10" x1="512" y1="1051.81" x2="498.11" y2="1045.47"/><line class="cls-10" x1="510.74" y1="1046.49" x2="517.19" y2="1031.98"/><line class="cls-10" x1="506.48" y1="1030.45" x2="512.36" y2="1019.45"/><line class="cls-10" x1="502.44" y1="1017.57" x2="506.6" y2="1009.22"/><line class="cls-10" x1="497.73" y1="1004.79" x2="499.51" y2="998.85"/><line class="cls-10" x1="513.97" y1="1060.9" x2="520.57" y2="1047.9"/><line class="cls-10" x1="515.21" y1="1067.17" x2="503.6" y2="1060.24"/><path class="cls-9" d="M545.48,1081.79s23.68-25.69,29.49-49.35,3.61-38.78,3.61-38.78-7.14,8.17-19.74,26.29S536,1075.47,536,1075.47Z"/><path class="cls-10" d="M578.05,996.1s-5.68,30.81-37.15,82.63"/><line class="cls-10" x1="570.95" y1="1018.83" x2="567.33" y2="1008.09"/><line class="cls-10" x1="566.06" y1="1030.8" x2="560.35" y2="1017.78"/><line class="cls-10" x1="559.39" y1="1045.15" x2="552.77" y2="1030.36"/><line class="cls-10" x1="553.5" y1="1056.66" x2="547.16" y2="1042.77"/><line class="cls-10" x1="556.04" y1="1051.82" x2="570.42" y2="1045.08"/><line class="cls-10" x1="563.32" y1="1036.91" x2="574.97" y2="1032.44"/><line class="cls-10" x1="568.7" y1="1024.53" x2="577.32" y2="1020.95"/><line class="cls-10" x1="573.52" y1="1011.79" x2="578.76" y2="1008.47"/><line class="cls-10" x1="549.03" y1="1064.82" x2="562.54" y2="1059.32"/><line class="cls-10" x1="545.86" y1="1070.37" x2="541.63" y2="1057.53"/></g><g id="Mountain_Front" data-name="Mountain Front"><path class="cls-11" d="M0,847.69v303.86H601.27s-25.15-77-99-82.87-74.09,2.51-119.29-20.09-73-105.69-188.24-155S0,847.69,0,847.69Z"/></g></svg>