<svg id="Layer_1" data-name="Layer 1" xmlns="http://www.w3.org/2000/svg" xmlns:xlink="http://www.w3.org/1999/xlink" viewBox="0 0 141.73 141.73"><defs><style>.cls-1{mask:url(#mask);}.cls-2{filter:url(#luminosity-noclip);}</style><filter id="luminosity-noclip" x="10" y="-8263" width="120" height="32766" filterUnits="userSpaceOnUse" color-interpolation-filters="sRGB"><feFlood flood-color="#fff" result="bg"/><feBlend in="SourceGraphic" in2="bg"/></filter><mask id="mask" x="10" y="-8263" width="120" height="32766" maskUnits="userSpaceOnUse"><g class="cls-2"/></mask></defs><g class="cls-1"><path d="M10,97.17c13.14-4.58,34.83-12.26,43-23.62a9.25,9.25,0,0,0,.67-9.4c-4.26-7.15-17.79-3.79-24.39-1.9l-4.6,1.43,3-3.69C37.79,47.7,54.08,36.65,70.56,41.93a59.37,59.37,0,0,1,14.25,7.73A173.05,173.05,0,0,1,106,67.8a318.59,318.59,0,0,1,24,26.54c-9-9.69-18.29-19.1-28.14-27.88-9.7-8.42-20-17.41-32.15-21.85C54.46,39.93,39.41,50.54,30,61.76l-1.6-2.26c8-2.31,22.61-5.37,27.53,3.48a11.59,11.59,0,0,1-1,11.8C46.33,86.4,23.67,93.48,10,97.17Z"/></g></svg>